<?xml version="1.0" encoding="utf-8"?>
<!-- Generator: Adobe Illustrator 24.1.1, SVG Export Plug-In . SVG Version: 6.00 Build 0)  -->
<svg version="1.1" id="Capa_1" xmlns="http://www.w3.org/2000/svg" xmlns:xlink="http://www.w3.org/1999/xlink" x="0px" y="0px"
	 viewBox="0 0 2044 964" style="enable-background:new 0 0 2044 964;" xml:space="preserve">
<style type="text/css">
	.st0{fill:#333333;}
	.st1{fill:#FCC112;}
	.st2{fill:#FFFFFF;}
	.st3{fill:#666666;}
	.st4{fill:#808080;}
	.st5{fill:#4D4D4D;}
	.st6{fill:#A67C52;}
	.st7{fill:#F7931E;}
	.st8{fill:#883500;}
	.st9{display:none;fill:#333333;}
	.st10{fill:#E06110;}
	.st11{fill:#F15A24;}
	.st12{display:none;fill:none;stroke:#000000;stroke-miterlimit:10;}
	.st13{display:none;}
	.st14{display:inline;fill:#FCC112;}
	.st15{display:inline;fill:#FFFFFF;}
	.st16{display:inline;}
	.st17{display:inline;fill:#333333;}
	.st18{display:inline;fill:#E06110;}
	.st19{display:inline;fill:none;stroke:#000000;stroke-miterlimit:10;}
</style>
<path class="st0" d="M1914.11,463.42l48.32-19.46c-1.19-20.81-3.91-41.31-8.05-61.37l-51.98-7.45c-4.09-15.93-9.2-31.51-15.27-46.64
	l38.04-35.6c-2.73-6.01-5.61-11.95-8.61-17.82l-53.37,6.02l0.64,5.63l-133.24,15.02l-33.77,84.41c15.14,28.59,23,61.28,21.56,95.27
	c29.62,12.12,50.5,41.21,50.5,75.2v17.77c-12.14,0.11-24.09,0.2-35.81,0.29c0.12,0.05,0.24,0.1,0.36,0.15
	c-10.99,0.09-21.78,0.16-32.38,0.23l54.35,259.81c14.72-8.81,28.89-18.49,42.44-28.99l-16.45-49.7
	c13.57-11.55,26.35-24.07,38.2-37.47l48.78,18.16c12.56-15.51,24.07-31.96,34.41-49.26l-33.35-40.47
	c8.15-15.21,15.31-31.09,21.37-47.58l52.01-0.69c6.1-19.14,10.92-38.94,14.35-59.31l-45.74-25.7
	C1913.44,496.93,1914.32,480.08,1914.11,463.42z"/>
<path class="st0" d="M1532.55,286.39c0.49-0.2,1.02-0.35,1.58-0.41l365.35-41.23c-1.44-2.33-2.9-4.65-4.38-6.95l-51.13,11.82
	c-9.25-12.97-19.31-25.35-30.12-37.07l22.65-47.03c-14.97-14.83-31.07-28.6-48.19-41.14l-43.36,29.47
	c-13-8.62-26.61-16.47-40.75-23.47l4.14-52.1c-19.24-8.45-39.3-15.55-60.07-21.16l-29.76,43.1c-7.55-1.67-15.19-3.13-22.93-4.35
	c-7.74-1.22-15.46-2.2-23.16-2.94l-15-50.18c-21.49-1.08-42.76-0.52-63.67,1.57l-12.16,50.83c-15.62,2.29-30.98,5.56-46.01,9.74
	l-32.14-41.42c-20.16,6.64-39.72,14.76-58.54,24.24l7.02,51.72c-13.91,7.81-27.3,16.48-40.1,25.96l-9.91-5.96l80.3,200.7
	C1417.25,314.26,1472.58,285.89,1532.55,286.39z"/>
<path class="st0" d="M359.8,361.55c34.09-44.84,87.93-73.85,148.56-74.06c0.83-0.63,1.82-1.06,2.93-1.19l348.99-39.39l9.57-12.3
	c-11.55-17.52-24.36-34.13-38.3-49.72l-48.65,19.67c-11.16-11.36-23.03-22.02-35.55-31.91l15.02-49.99
	c-17.11-12.31-35.16-23.39-54.03-33.1l-38.22,35.88c-14.19-6.48-28.85-12.11-43.92-16.81l-4.06-52.11
	c-20.33-5.34-41.25-9.21-62.64-11.51l-22.66,47.22c-7.72-0.47-15.5-0.71-23.33-0.71c-7.84,0-15.62,0.24-23.33,0.71l-22.66-47.22
	c-21.39,2.29-42.31,6.17-62.64,11.51l-4.06,52.11c-15.07,4.71-29.73,10.33-43.92,16.81l-38.22-35.88
	c-18.87,9.71-36.92,20.79-54.03,33.1l3.35,11.16c1.75,3.26,3.35,6.64,4.75,10.15L359.8,361.55z"/>
<path class="st0" d="M935.1,534.1c3.04-19.86,4.7-40.16,4.9-60.82l-49.2-18.24c-0.62-17.07-2.39-33.85-5.2-50.27L930.28,378
	c-4.43-20.37-10.32-40.19-17.55-59.36l-52.51,0.77c-5.66-13.09-12.04-25.8-19.09-38.08l-0.79,0.09l0.64,5.63l-133.24,15.02
	l-33.66,84.12c14.19,26.38,22.25,56.55,22.25,88.61c0,2.42-0.06,4.82-0.15,7.21c29.28,12.27,49.85,41.2,49.85,74.94v17.77
	c-12.14,0.11-24.09,0.2-35.81,0.29c0.12,0.05,0.24,0.1,0.36,0.15c-10.99,0.09-21.78,0.16-32.38,0.23L721.82,784
	c5.09-3.38,10.11-6.86,15.02-10.47l43.85,28.05c15.45-12.43,30.01-25.92,43.58-40.35l-24.02-46.52
	c11.6-13.53,22.26-27.89,31.88-42.98l51.02,10.31c9.98-17.28,18.77-35.33,26.29-54.04l-39.27-34.76
	c5.67-16.3,10.26-33.1,13.67-50.33L935.1,534.1z"/>
<g>
	<path class="st1" d="M673.01,674.36c2.1-13.75,3.25-27.81,3.39-42.12l-34.07-12.63c-0.43-11.82-1.65-23.44-3.6-34.82l30.94-18.54
		c-3.07-14.1-7.15-27.83-12.15-41.11l-36.36,0.53c-4.52-10.45-9.7-20.56-15.49-30.25l22.16-28.47c-8-12.13-16.87-23.64-26.52-34.43
		l-33.69,13.62c-7.73-7.87-15.95-15.25-24.62-22.1l10.4-34.62c-11.85-8.53-24.35-16.2-37.42-22.92l-26.47,24.85
		c-9.83-4.49-19.98-8.38-30.42-11.64l-2.81-36.09c-14.08-3.7-28.56-6.38-43.38-7.97l-15.69,32.7c-5.34-0.33-10.73-0.49-16.16-0.49
		s-10.81,0.17-16.16,0.49l-15.69-32.7c-14.82,1.59-29.3,4.27-43.38,7.97l-2.81,36.09c-10.44,3.26-20.59,7.16-30.42,11.64
		l-26.47-24.85c-13.07,6.72-25.57,14.39-37.42,22.92l10.4,34.62c-8.67,6.85-16.89,14.23-24.62,22.1l-33.69-13.62
		c-9.65,10.79-18.52,22.3-26.52,34.43l22.16,28.47c-5.79,9.69-10.97,19.8-15.49,30.25l-36.36-0.53c-5,13.27-9.08,27-12.15,41.11
		l30.94,18.54c-1.95,11.37-3.17,22.99-3.6,34.82L85.7,632.24c0.14,14.31,1.29,28.37,3.39,42.12l35.5,6.1
		c2.36,11.93,5.54,23.57,9.47,34.86l-27.19,24.07c5.2,12.95,11.3,25.45,18.21,37.42l35.33-7.14c6.66,10.45,14.04,20.39,22.07,29.76
		l-16.63,32.22c9.4,9.99,19.48,19.34,30.18,27.94l30.36-19.42c10.14,7.45,20.83,14.18,32,20.13l-3.87,36.01
		c12.21,5.8,24.88,10.78,37.94,14.88l21.33-29.13c12.19,3.24,24.73,5.62,37.55,7.07l9.38,34.89c6.72,0.46,13.5,0.69,20.33,0.69
		s13.61-0.24,20.33-0.69l9.38-34.89c12.82-1.45,25.36-3.83,37.55-7.07l21.33,29.13c13.06-4.1,25.73-9.09,37.94-14.88l-3.87-36.01
		c11.17-5.95,21.87-12.68,32-20.13l30.36,19.42c10.7-8.61,20.78-17.95,30.18-27.94l-16.63-32.22c8.03-9.37,15.41-19.31,22.07-29.76
		l35.33,7.14c6.91-11.97,13-24.47,18.2-37.42l-27.19-24.07c3.93-11.29,7.1-22.92,9.47-34.86L673.01,674.36z"/>
	<path class="st1" d="M673.01,674.36c2.1-13.75,3.25-27.81,3.39-42.12l-34.07-12.63c-0.43-11.82-1.65-23.44-3.6-34.82l30.94-18.54
		c-3.07-14.1-7.15-27.83-12.15-41.11l-36.36,0.53c-4.52-10.45-9.7-20.56-15.49-30.25l22.16-28.47c-8-12.13-16.87-23.64-26.52-34.43
		l-33.69,13.62c-7.73-7.87-15.95-15.25-24.62-22.1l10.4-34.62c-11.85-8.53-24.35-16.2-37.42-22.92l-26.47,24.85
		c-9.83-4.49-19.98-8.38-30.42-11.64l-2.81-36.09c-14.08-3.7-28.56-6.38-43.38-7.97l-15.69,32.7c-5.34-0.33-10.73-0.49-16.16-0.49
		s-10.81,0.17-16.16,0.49l-15.69-32.7c-14.82,1.59-29.3,4.27-43.38,7.97l-2.81,36.09c-10.44,3.26-20.59,7.16-30.42,11.64
		l-26.47-24.85c-13.07,6.72-25.57,14.39-37.42,22.92l10.4,34.62c-8.67,6.85-16.89,14.23-24.62,22.1l-33.69-13.62
		c-9.65,10.79-18.52,22.3-26.52,34.43l22.16,28.47c-5.79,9.69-10.97,19.8-15.49,30.25l-36.36-0.53c-5,13.27-9.08,27-12.15,41.11
		l30.94,18.54c-1.95,11.37-3.17,22.99-3.6,34.82L85.7,632.24c0.14,14.31,1.29,28.37,3.39,42.12l35.5,6.1
		c2.36,11.93,5.54,23.57,9.47,34.86l-27.19,24.07c5.2,12.95,11.3,25.45,18.21,37.42l35.33-7.14c6.66,10.45,14.04,20.39,22.07,29.76
		l-16.63,32.22c9.4,9.99,19.48,19.34,30.18,27.94l30.36-19.42c10.14,7.45,20.83,14.18,32,20.13l-3.87,36.01
		c12.21,5.8,24.88,10.78,37.94,14.88l21.33-29.13c12.19,3.24,24.73,5.62,37.55,7.07l9.38,34.89c6.72,0.46,13.5,0.69,20.33,0.69
		s13.61-0.24,20.33-0.69l9.38-34.89c12.82-1.45,25.36-3.83,37.55-7.07l21.33,29.13c13.06-4.1,25.73-9.09,37.94-14.88l-3.87-36.01
		c11.17-5.95,21.87-12.68,32-20.13l30.36,19.42c10.7-8.61,20.78-17.95,30.18-27.94l-16.63-32.22c8.03-9.37,15.41-19.31,22.07-29.76
		l35.33,7.14c6.91-11.97,13-24.47,18.2-37.42l-27.19-24.07c3.93-11.29,7.1-22.92,9.47-34.86L673.01,674.36z"/>
	<circle class="st2" cx="381.05" cy="630.18" r="131.1"/>
</g>
<g>
	<g>
		<polygon class="st3" points="429.91,497.04 522.02,524.06 378.55,856.98 355.02,856.67 		"/>
	</g>
	<g>
		<path class="st4" d="M679.02,281.67c-24,8-49,8-73,15c-1.07,0.54-2.15,0.92-3.22,1.17l-89.31,223.21l91.92,36.78L715,283.91
			l-17.67-7.07C691.18,278.09,685.05,279.56,679.02,281.67z"/>
	</g>
	<g>
		<polygon class="st3" points="661.79,497.04 569.68,524.06 713.15,856.98 737.02,856.67 		"/>
	</g>
	<path class="st5" d="M485.66,543.22c-1.64,13.45-50.99,68.89-74.64,165.45c-13.72,56.02-32.07,105.97-29.43,140.53l120.3-279.16
		C498.87,554.74,486.64,535.25,485.66,543.22z"/>
	<path class="st5" d="M608.96,551.26c1.64,13.45,50.99,68.89,74.64,165.45c13.72,56.02,32.07,105.97,29.43,140.53l-120.3-279.16
		C595.75,562.79,607.99,543.29,608.96,551.26z"/>
	<g>
		<path class="st3" d="M680.68,289.95l-89.31,223.21l26.53,12.82l99.6-248.94C701.92,279.7,681.76,289.7,680.68,289.95z"/>
	</g>
	<g>
		<polygon class="st5" points="840.06,279.01 840.97,287.06 596.02,314.67 600.02,304.67 		"/>
	</g>
	<g>
		<path class="st6" d="M910.96,247.16l2.27,20.08c0.37,3.25-1.97,6.18-5.22,6.55l-393.12,44.37c-3.25,0.37-6.18-1.97-6.55-5.22
			l-2.27-20.08c-0.37-3.25,1.97-6.18,5.22-6.55l393.12-44.37C907.66,241.57,910.59,243.91,910.96,247.16z"/>
	</g>
	<g>
		<path class="st7" d="M746.02,556.96v17.77c-199.27,1.73-344.57,1.25-370.02,0c-7.16-0.35-21.4-1.58-33.98-11.06
			c0,0-9.33-7.02-15.53-18.86c-11.1-21.18-84.42-204.67-182.07-455.04c0.31-0.12,0.61-0.25,0.92-0.37
			c50.25-20.11,107.29,4.33,127.4,54.58l132.74,331.75h259.31C709.66,475.73,746.02,512.09,746.02,556.96z"/>
	</g>
	<path class="st8" d="M373.24,574.96c26.75,1.15,157.02,1.61,337.33,0.21c-26.54-11.31-92.16-19.32-168.92-19.32
		C465.37,555.85,400.09,563.76,373.24,574.96z"/>
</g>
<path class="st9" d="M928.32,536.87c3.09-20.2,4.78-40.86,4.98-61.88l-50.05-18.55c-0.64-17.37-2.43-34.44-5.29-51.15l45.46-27.23
	c-4.51-20.72-10.5-40.89-17.85-60.39l-53.42,0.78c-4.6-10.65-9.69-21.05-15.2-31.17l-131.2,14.79l-33.75,84.35
	c12.8,25.78,20.02,54.83,20.02,85.56c0,3.05-0.08,6.07-0.22,9.08c30.54,11.68,52.24,41.24,52.24,75.88v17.77
	c-12.14,0.11-24.09,0.2-35.81,0.29c0.12,0.05,0.24,0.1,0.36,0.15c-10.99,0.09-21.78,0.16-32.38,0.24l43.88,209.76
	c2.2-1.55,4.38-3.11,6.55-4.7l44.61,28.53c15.72-12.65,30.53-26.37,44.34-41.05l-24.44-47.33c11.8-13.76,22.65-28.37,32.43-43.72
	l51.9,10.49c10.15-17.58,19.1-35.95,26.74-54.97l-39.95-35.36c5.77-16.58,10.44-33.68,13.91-51.21L928.32,536.87z"/>
<path class="st9" d="M352.26,347.7c35.33-41.79,88.13-68.33,147.13-68.33c13,0,25.7,1.3,37.98,3.75l312.34-35.25l12.21-15.69
	c-11.75-17.82-24.79-34.73-38.97-50.59l-49.5,20.01c-11.35-11.56-23.43-22.41-36.16-32.46l15.28-50.86
	c-17.4-12.52-35.77-23.79-54.97-33.67l-38.89,36.51c-14.44-6.59-29.35-12.32-44.69-17.1L609.91,51
	c-20.68-5.43-41.96-9.37-63.73-11.71l-23.05,48.04c-7.85-0.48-15.77-0.73-23.74-0.73c-7.97,0-15.89,0.25-23.74,0.73L452.61,39.3
	c-21.76,2.33-43.05,6.28-63.73,11.71l-4.13,53.01c-15.33,4.79-30.25,10.51-44.69,17.1l-38.89-36.51
	c-17.07,8.78-33.48,18.67-49.14,29.56c7.77,8.48,14.17,18.48,18.7,29.79L352.26,347.7z"/>
<path class="st10" d="M135,134"/>
<path class="st10" d="M340,308c-5.47-31.99-12.88-179.08-81-207c-36.03-14.76-101-47-123-10c3,16.5,10.25,38.25,18,56.88
	c0,0,7.34,20.28,14,31.26l-22.22,11.06c-16.73,8.33-28.1,23.63-31.87,40.94c-17.43,6.28-27.05,25.21-21.59,43.13l19.84,65.04
	c4.66,15.28,18.82,25.03,34.03,24.78l7.88,26.1c-1.07,0.22-2.13,0.48-3.2,0.81h0c-18.49,5.64-28.91,25.2-23.27,43.69l19.84,65.04
	c5.64,18.49,25.2,28.91,43.69,23.27l0,0c1.37-0.42,2.68-0.92,3.96-1.48c8.58,13.11,25.87,18.62,40.88,11.6l3.11-1.46
	c9.09-4.25,14.81-13.09,15.35-22.71C272.06,491.11,362.96,442.24,340,308z M246.43,470.48l-70.48-295.3l-0.53,0.27
	C171.26,163.57,159.84,131.06,145,89c13-12,42.84-9.64,75,3c47.6,18.71,79.76,123.32,87,165
	C337.82,434.41,281.23,443.94,246.43,470.48z"/>
<g>
	<path class="st1" d="M848.06,221.78l0.35,3.09c1.44,12.75-7.73,24.25-20.48,25.69L596.6,276.67c-12.75,1.44-24.25-7.73-25.69-20.48
		l-0.35-3.09c-1.44-12.75,7.73-24.25,20.48-25.69l231.32-26.11C835.12,199.86,846.62,209.03,848.06,221.78z"/>
</g>
<g>
	<path class="st11" d="M869.41,169.88l0.35,3.09c1.44,12.75-7.73,24.25-20.48,25.69l-231.32,26.11
		c-12.75,1.44-24.25-7.73-25.69-20.48l-0.35-3.09c-1.44-12.75,7.73-24.25,20.48-25.69l231.32-26.11
		C856.47,147.96,867.97,157.13,869.41,169.88z"/>
</g>
<rect class="st12" width="1022" height="964"/>
<g class="st13">
	<path class="st14" d="M-165.9,158.1c3.04-19.86,4.7-40.16,4.9-60.82l-49.2-18.24c-0.62-17.07-2.39-33.85-5.2-50.27L-170.72,2
		c-4.43-20.37-10.32-40.19-17.55-59.36l-52.51,0.77c-6.53-15.1-14.01-29.68-22.37-43.68l32-41.11
		c-11.55-17.52-24.36-34.13-38.3-49.72l-48.65,19.67c-11.16-11.36-23.03-22.02-35.55-31.91l15.02-49.99
		c-17.11-12.31-35.16-23.39-54.03-33.1l-38.22,35.88c-14.19-6.48-28.85-12.11-43.92-16.81l-4.06-52.11
		c-20.33-5.34-41.25-9.21-62.64-11.51l-22.66,47.22c-7.72-0.47-15.5-0.71-23.33-0.71c-7.84,0-15.62,0.24-23.33,0.71l-22.66-47.22
		c-21.39,2.29-42.31,6.17-62.64,11.51l-4.06,52.11c-15.07,4.71-29.73,10.33-43.92,16.81l-38.22-35.88
		c-18.87,9.71-36.92,20.79-54.03,33.1l15.02,49.99c-12.51,9.89-24.39,20.55-35.55,31.91l-48.65-19.67
		c-13.94,15.59-26.75,32.2-38.3,49.72l32,41.11c-8.36,14-15.85,28.59-22.37,43.68l-52.51-0.77c-7.23,19.17-13.12,38.99-17.55,59.36
		l44.68,26.77c-2.82,16.42-4.58,33.2-5.2,50.27l-49.2,18.24c0.2,20.66,1.86,40.97,4.9,60.82l51.26,8.81
		c3.41,17.23,8,34.03,13.67,50.33L-983.42,252c7.51,18.7,16.31,36.75,26.29,54.04l51.02-10.31c9.62,15.09,20.28,29.45,31.88,42.98
		l-24.02,46.52c13.57,14.43,28.13,27.92,43.58,40.35l43.85-28.05c14.64,10.75,30.07,20.48,46.21,29.07l-5.59,52
		c17.63,8.37,35.92,15.57,54.78,21.49l30.81-42.06c17.6,4.67,35.71,8.11,54.22,10.2l13.54,50.38c9.7,0.66,19.49,1,29.36,1
		c9.87,0,19.66-0.34,29.36-1l13.54-50.38c18.51-2.09,36.62-5.53,54.22-10.2l30.81,42.06c18.86-5.92,37.15-13.12,54.78-21.49
		l-5.59-52c16.14-8.59,31.58-18.31,46.21-29.07l43.85,28.05c15.45-12.43,30.01-25.92,43.58-40.35l-24.02-46.52
		c11.6-13.53,22.26-27.89,31.88-42.98l51.02,10.31c9.98-17.28,18.77-35.33,26.29-54.04l-39.27-34.76
		c5.67-16.3,10.26-33.1,13.67-50.33L-165.9,158.1z"/>
	<circle class="st15" cx="-592" cy="98.81" r="187.32"/>
</g>
<g class="st13">
	<path class="st14" d="M1695.85,674.04c2.1-13.75,3.25-27.81,3.39-42.12l-34.07-12.63c-0.43-11.82-1.65-23.44-3.6-34.82l30.94-18.54
		c-3.07-14.1-7.15-27.83-12.15-41.11l-36.36,0.53c-4.52-10.45-9.7-20.56-15.49-30.25l22.16-28.47c-8-12.13-16.87-23.64-26.52-34.43
		l-33.69,13.62c-7.73-7.87-15.95-15.25-24.62-22.1l10.4-34.62c-11.85-8.53-24.35-16.2-37.42-22.92l-26.47,24.85
		c-9.83-4.49-19.98-8.38-30.42-11.64l-2.81-36.09c-14.08-3.7-28.56-6.38-43.38-7.97l-15.69,32.7c-5.34-0.33-10.73-0.49-16.16-0.49
		s-10.81,0.17-16.16,0.49l-15.69-32.7c-14.82,1.59-29.3,4.27-43.38,7.97l-2.81,36.09c-10.44,3.26-20.59,7.16-30.42,11.64
		l-26.47-24.85c-13.07,6.72-25.57,14.39-37.42,22.92l10.4,34.62c-8.67,6.85-16.89,14.23-24.62,22.1l-33.69-13.62
		c-9.65,10.79-18.52,22.3-26.52,34.43l22.16,28.47c-5.79,9.69-10.97,19.8-15.49,30.25l-36.36-0.53c-5,13.27-9.08,27-12.15,41.11
		l30.94,18.54c-1.95,11.37-3.17,22.99-3.6,34.82l-34.07,12.63c0.14,14.31,1.29,28.37,3.39,42.12l35.5,6.1
		c2.36,11.93,5.54,23.57,9.47,34.86l-27.19,24.07c5.2,12.95,11.3,25.45,18.21,37.42l35.33-7.14c6.66,10.45,14.04,20.39,22.07,29.76
		l-16.63,32.22c9.4,9.99,19.48,19.34,30.18,27.94l30.36-19.42c10.14,7.45,20.83,14.18,32,20.13l-3.87,36.01
		c12.21,5.8,24.88,10.78,37.94,14.88l21.33-29.13c12.19,3.24,24.73,5.62,37.55,7.07l9.38,34.89c6.72,0.46,13.5,0.69,20.33,0.69
		s13.61-0.24,20.33-0.69l9.38-34.89c12.82-1.45,25.36-3.83,37.55-7.07l21.33,29.13c13.06-4.1,25.73-9.09,37.94-14.88l-3.87-36.01
		c11.17-5.95,21.87-12.68,32-20.13l30.36,19.42c10.7-8.61,20.78-17.95,30.18-27.94l-16.63-32.22c8.03-9.37,15.41-19.31,22.07-29.76
		l35.33,7.14c6.91-11.97,13-24.47,18.2-37.42l-27.19-24.07c3.93-11.29,7.1-22.92,9.47-34.86L1695.85,674.04z"/>
	<circle class="st15" cx="1403.89" cy="629.86" r="131.1"/>
</g>
<g>
	<path class="st1" d="M1681.79,729.7c4.72-13.08,8.57-26.66,11.48-40.67l-30.98-18.98c1.86-11.68,2.92-23.32,3.2-34.85l33.95-12.2
		c-0.28-14.43-1.63-28.69-3.97-42.68l-35.78-6.51c-2.41-11.13-5.54-22.04-9.35-32.68l27.25-23.64
		c-5.5-13.45-11.98-26.46-19.36-38.91l-35.69,6.85c-6.06-9.22-12.7-18.05-19.87-26.44l16.9-31.95
		c-9.97-10.66-20.75-20.6-32.27-29.73l-30.78,19.26c-8.77-6.3-17.98-12.09-27.59-17.31l4.22-35.95
		c-13.1-6.35-26.79-11.79-41.02-16.21l-21.72,29.05c-5.18-1.35-10.43-2.56-15.76-3.61c-5.32-1.05-10.64-1.93-15.95-2.64l-9.07-35.12
		c-14.84-1.31-29.57-1.48-44.1-0.58l-9.74,34.86c-10.87,1.18-21.58,3.04-32.09,5.54l-21.16-29.5c-14.12,4.07-27.87,9.17-41.14,15.25
		l3.51,35.98c-9.83,5.04-19.32,10.69-28.43,16.92l-30.42-19.89c-11.56,8.72-22.49,18.29-32.69,28.65l16.23,32.22
		c-7.56,8.39-14.6,17.3-21.05,26.68l-35.57-7.56c-7.48,12.05-14.14,24.73-19.88,37.98l26.77,24.18
		c-4.12,10.78-7.56,21.94-10.27,33.46l-35.87,5.8c-2.63,14.06-4.23,28.08-4.82,41.98l33.65,12.85c0.01,12.16,0.88,24.2,2.55,36.03
		l-31.34,18.35c2.6,13.71,6.16,27.16,10.62,40.24l36.04-0.17c4.51,11.54,9.83,22.72,15.9,33.47l-22.55,28.39
		c7.29,11.62,15.37,22.74,24.2,33.26l33.55-13.18c8.5,9.27,17.69,17.94,27.5,25.94l-10.76,34.58c10.86,8.05,22.32,15.39,34.34,21.94
		l26.57-24.45c11.33,5.53,23.18,10.3,35.47,14.2l2.45,36.04c6.5,1.75,13.11,3.29,19.82,4.62c6.71,1.32,13.4,2.4,20.08,3.25
		l15.95-32.41c12.86,1.06,25.62,1.15,38.21,0.33l15.29,32.7c13.61-1.5,27-3.94,40.1-7.26l3.17-36.08
		c12.11-3.67,23.91-8.21,35.29-13.56l26.03,24.93c12.16-6.38,23.86-13.59,35.02-21.58l-10.09-34.83
		c9.69-7.64,18.86-15.97,27.42-24.93l33.28,13.84c9.1-10.41,17.49-21.49,25.1-33.19l-22.02-28.88
		c6.04-10.31,11.41-21.12,16.03-32.36L1681.79,729.7z"/>
	<circle class="st2" cx="1403.89" cy="629.86" r="131.1"/>
</g>
<g>
	<g>
		<polygon class="st3" points="1452.75,496.72 1544.86,523.74 1401.39,856.66 1377.86,856.35 		"/>
	</g>
	<g>
		<path class="st4" d="M1701.86,281.35c-24,8-49,8-73,15c-1.07,0.54-2.15,0.92-3.22,1.17l-89.31,223.21l91.92,36.78l109.6-273.91
			l-17.67-7.07C1714.02,277.77,1707.89,279.24,1701.86,281.35z"/>
	</g>
	<g>
		<polygon class="st3" points="1684.63,496.72 1592.52,523.74 1735.99,856.66 1759.86,856.35 		"/>
	</g>
	<path class="st5" d="M1508.5,542.9c-1.64,13.45-50.99,68.89-74.64,165.45c-13.72,56.02-32.07,105.97-29.43,140.53l120.3-279.16
		C1521.71,554.42,1509.48,534.93,1508.5,542.9z"/>
	<path class="st5" d="M1631.8,550.94c1.64,13.45,50.99,68.89,74.64,165.45c13.72,56.02,32.07,105.97,29.43,140.53l-120.3-279.16
		C1618.59,562.47,1630.83,542.97,1631.8,550.94z"/>
	<g>
		<path class="st3" d="M1703.52,289.63l-89.31,223.21l26.53,12.82l99.6-248.94C1724.76,279.38,1704.6,289.38,1703.52,289.63z"/>
	</g>
	<g>
		<polygon class="st5" points="1862.9,278.69 1863.81,286.74 1618.86,314.35 1622.86,304.35 		"/>
	</g>
	<g>
		<path class="st6" d="M1933.8,246.84l2.27,20.08c0.37,3.25-1.97,6.18-5.22,6.55l-393.12,44.37c-3.25,0.37-6.18-1.97-6.55-5.22
			l-2.27-20.08c-0.37-3.25,1.97-6.18,5.22-6.55l393.12-44.37C1930.5,241.25,1933.43,243.59,1933.8,246.84z"/>
	</g>
	<g>
		<path class="st7" d="M1768.86,556.64v17.77c-199.27,1.73-344.57,1.25-370.02,0c-7.16-0.35-21.4-1.58-33.98-11.06
			c0,0-9.32-7.02-15.53-18.86c-11.1-21.18-84.42-204.67-182.07-455.04c0.31-0.12,0.61-0.25,0.92-0.37
			c50.25-20.11,107.29,4.33,127.4,54.58l132.74,331.75h259.31C1732.5,475.41,1768.86,511.77,1768.86,556.64z"/>
	</g>
	<path class="st8" d="M1396.08,574.64c26.75,1.15,157.02,1.61,337.33,0.21c-26.54-11.31-92.16-19.32-168.92-19.32
		C1488.21,555.53,1422.93,563.44,1396.08,574.64z"/>
</g>
<path class="st9" d="M1951.16,536.55c3.09-20.2,4.78-40.86,4.98-61.88l-50.05-18.55c-0.64-17.37-2.43-34.44-5.29-51.15l45.46-27.23
	c-4.51-20.72-10.5-40.89-17.85-60.39l-53.42,0.78c-4.6-10.65-9.69-21.05-15.2-31.17l-131.2,14.79l-33.75,84.35
	c12.8,25.78,20.02,54.83,20.02,85.56c0,3.05-0.08,6.07-0.22,9.08c30.54,11.68,52.24,41.24,52.24,75.88v17.77
	c-12.14,0.11-24.09,0.2-35.81,0.29c0.12,0.05,0.24,0.1,0.36,0.15c-10.99,0.09-21.78,0.16-32.38,0.24l43.88,209.76
	c2.2-1.55,4.38-3.11,6.55-4.7l44.61,28.53c15.72-12.65,30.53-26.37,44.34-41.05l-24.44-47.33c11.8-13.76,22.65-28.37,32.43-43.72
	l51.9,10.49c10.15-17.58,19.1-35.95,26.74-54.97l-39.95-35.36c5.77-16.58,10.44-33.68,13.91-51.21L1951.16,536.55z"/>
<path class="st9" d="M1375.1,347.38c35.33-41.79,88.13-68.33,147.13-68.33c13,0,25.7,1.3,37.98,3.75l312.34-35.25l12.21-15.69
	c-11.75-17.82-24.79-34.73-38.97-50.59l-49.5,20.01c-11.35-11.56-23.43-22.41-36.16-32.46l15.28-50.86
	c-17.4-12.52-35.77-23.79-54.97-33.67l-38.89,36.51c-14.44-6.59-29.35-12.32-44.69-17.1l-4.13-53.01
	c-20.68-5.43-41.96-9.37-63.73-11.71l-23.05,48.04c-7.85-0.48-15.77-0.73-23.74-0.73c-7.97,0-15.89,0.25-23.74,0.73l-23.05-48.04
	c-21.76,2.33-43.05,6.28-63.73,11.71l-4.13,53.01c-15.33,4.79-30.25,10.51-44.69,17.1l-38.89-36.51
	c-17.07,8.78-33.48,18.67-49.14,29.56c7.77,8.48,14.17,18.48,18.7,29.79L1375.1,347.38z"/>
<path class="st10" d="M1157.84,133.68"/>
<path class="st10" d="M1362.84,307.68c-5.47-31.99-12.88-179.08-81-207c-36.03-14.76-101-47-123-10c3,16.5,10.25,38.25,18,56.87
	c0,0,7.34,20.28,14,31.26l-22.22,11.06c-16.73,8.33-28.1,23.63-31.87,40.94c-17.43,6.28-27.05,25.21-21.59,43.13l19.84,65.04
	c4.66,15.28,18.82,25.03,34.03,24.78l7.88,26.1c-1.07,0.22-2.13,0.48-3.2,0.81l0,0c-18.49,5.64-28.91,25.2-23.27,43.69l19.84,65.04
	c5.64,18.49,25.2,28.91,43.69,23.27l0,0c1.37-0.42,2.68-0.92,3.96-1.48c8.58,13.11,25.87,18.62,40.88,11.6l3.11-1.46
	c9.09-4.25,14.81-13.09,15.35-22.71C1294.9,490.79,1385.8,441.92,1362.84,307.68z M1269.27,470.16l-70.48-295.3l-0.53,0.27
	c-4.16-11.88-15.57-44.39-30.41-86.45c13-12,42.84-9.64,75,3c47.6,18.71,79.76,123.32,87,165
	C1360.66,434.09,1304.07,443.62,1269.27,470.16z"/>
<g>
	<path class="st1" d="M1870.9,221.46l0.35,3.09c1.44,12.75-7.73,24.25-20.48,25.69l-231.32,26.11
		c-12.75,1.44-24.25-7.73-25.69-20.48l-0.35-3.09c-1.44-12.75,7.73-24.25,20.48-25.69l231.32-26.11
		C1857.96,199.54,1869.46,208.71,1870.9,221.46z"/>
</g>
<g>
	<path class="st11" d="M1892.25,169.56l0.35,3.09c1.44,12.75-7.73,24.25-20.48,25.69l-231.32,26.11
		c-12.75,1.44-24.25-7.73-25.69-20.48l-0.35-3.09c-1.44-12.75,7.73-24.25,20.48-25.69l231.32-26.11
		C1879.31,147.64,1890.81,156.81,1892.25,169.56z"/>
</g>
<rect x="1022.84" y="-0.32" class="st12" width="1022" height="964"/>
<g class="st13">
	<path class="st14" d="M1882.94,1630.78c3.04-19.86,4.7-40.16,4.9-60.82l-49.2-18.24c-0.62-17.07-2.39-33.85-5.2-50.27l44.68-26.77
		c-4.43-20.37-10.32-40.19-17.55-59.36l-52.51,0.77c-6.53-15.1-14.01-29.68-22.37-43.68l32-41.11
		c-11.55-17.52-24.36-34.13-38.3-49.72l-48.65,19.67c-11.16-11.36-23.03-22.02-35.55-31.91l15.02-49.99
		c-17.11-12.31-35.16-23.39-54.03-33.1l-38.22,35.88c-14.19-6.48-28.85-12.11-43.92-16.81l-4.06-52.11
		c-20.33-5.34-41.25-9.21-62.64-11.51l-22.66,47.22c-7.72-0.47-15.5-0.71-23.33-0.71s-15.62,0.24-23.33,0.71l-22.66-47.22
		c-21.39,2.29-42.31,6.17-62.64,11.51l-4.06,52.11c-15.07,4.71-29.73,10.33-43.92,16.81l-38.22-35.88
		c-18.87,9.71-36.92,20.79-54.03,33.1l15.02,49.99c-12.51,9.89-24.39,20.55-35.55,31.91l-48.65-19.67
		c-13.94,15.59-26.75,32.2-38.3,49.72l32,41.11c-8.36,14-15.85,28.59-22.37,43.68l-52.51-0.77c-7.23,19.17-13.12,38.99-17.55,59.36
		l44.68,26.77c-2.82,16.42-4.58,33.2-5.2,50.27l-49.2,18.24c0.2,20.66,1.86,40.97,4.9,60.82l51.26,8.81
		c3.42,17.23,8,34.03,13.67,50.33l-39.27,34.76c7.51,18.7,16.31,36.75,26.29,54.04l51.02-10.31c9.62,15.09,20.28,29.45,31.88,42.98
		l-24.02,46.52c13.57,14.43,28.13,27.92,43.58,40.35l43.85-28.05c14.64,10.75,30.07,20.48,46.21,29.07l-5.59,52
		c17.63,8.37,35.92,15.57,54.78,21.49l30.81-42.06c17.6,4.67,35.71,8.11,54.22,10.2l13.54,50.38c9.7,0.66,19.49,1,29.36,1
		s19.66-0.34,29.36-1l13.54-50.38c18.51-2.09,36.62-5.53,54.22-10.2l30.81,42.06c18.86-5.92,37.15-13.12,54.78-21.49l-5.59-52
		c16.14-8.59,31.58-18.31,46.21-29.07l43.85,28.05c15.45-12.43,30.01-25.92,43.58-40.35l-24.02-46.52
		c11.6-13.53,22.26-27.89,31.88-42.98l51.02,10.31c9.98-17.28,18.77-35.33,26.29-54.04l-39.27-34.76
		c5.67-16.3,10.26-33.1,13.67-50.33L1882.94,1630.78z"/>
	<circle class="st15" cx="1456.84" cy="1571.49" r="187.32"/>
</g>
<g class="st13">
	<path class="st14" d="M1258.79,1479.91c6.1-19.14,10.92-38.94,14.35-59.31l-45.74-25.7c2.05-16.96,2.94-33.81,2.72-50.47
		l48.32-19.46c-1.19-20.81-3.91-41.31-8.05-61.37l-51.98-7.45c-4.09-15.93-9.2-31.51-15.27-46.64l38.04-35.6
		c-8.67-19.11-18.73-37.52-30.06-55.1l-51.13,11.82c-9.25-12.97-19.31-25.35-30.12-37.07l22.65-47.03
		c-14.97-14.83-31.07-28.6-48.19-41.14l-43.36,29.47c-13-8.62-26.61-16.47-40.75-23.47l4.14-52.1
		c-19.24-8.45-39.3-15.55-60.07-21.16l-29.76,43.1c-7.55-1.67-15.19-3.13-22.93-4.35c-7.74-1.22-15.46-2.2-23.16-2.94l-15-50.18
		c-21.49-1.08-42.76-0.52-63.67,1.57l-12.16,50.83c-15.62,2.29-30.98,5.56-46.01,9.74l-32.14-41.42
		c-20.16,6.64-39.72,14.76-58.54,24.24l7.02,51.72c-13.91,7.81-27.3,16.48-40.1,25.96l-44.98-27.04
		c-16.2,13.22-31.46,27.62-45.6,43.12l25.18,45.61c-10.45,12.52-20.12,25.76-28.93,39.65l-51.74-8.97
		c-10.13,17.8-19.05,36.46-26.61,55.88l39.95,33.43c-5.35,15.78-9.71,32.08-13,48.84l-51.45,10.32
		c-3.03,20.43-4.57,40.75-4.67,60.84l49.26,16.71c0.68,17.55,2.58,34.87,5.64,51.85l-44.22,28.19c4.5,19.65,10.36,38.85,17.52,57.48
		l52-2.21c7.14,16.41,15.42,32.26,24.77,47.43l-31,42.19c11.15,16.38,23.42,31.98,36.74,46.67l47.69-20.85
		c12.77,12.91,26.5,24.93,41.1,35.93l-13.65,50.49c16.1,11.02,33.05,20.99,50.75,29.79l37-36.73c16.66,7.37,34,13.59,51.96,18.56
		l5.5,51.88c9.48,2.17,19.1,4.04,28.84,5.58c9.75,1.54,19.47,2.73,29.16,3.6l21.25-47.64c18.61,0.83,37.04,0.26,55.15-1.6
		l23.85,46.36c19.55-2.9,38.75-7.15,57.47-12.66l2.61-52.24c17.28-5.96,34.05-13.15,50.19-21.49l38.92,34.56
		c17.2-9.86,33.69-20.91,49.35-33.04l-16.45-49.7c13.57-11.55,26.35-24.07,38.2-37.47l48.78,18.16
		c12.56-15.51,24.07-31.96,34.41-49.26l-33.35-40.47c8.15-15.21,15.31-31.09,21.37-47.58L1258.79,1479.91z"/>
	<circle class="st15" cx="847.2" cy="1354.73" r="187.32"/>
</g>
<g class="st13">
	<g class="st16">
		<path class="st1" d="M663.57-378.36c2.1-13.75,3.25-27.81,3.39-42.12l-34.07-12.63c-0.43-11.82-1.65-23.44-3.6-34.82l30.94-18.54
			c-3.07-14.1-7.15-27.83-12.15-41.11l-36.36,0.53c-4.52-10.45-9.7-20.56-15.49-30.25l22.16-28.47c-8-12.13-16.87-23.64-26.52-34.43
			l-33.69,13.62c-7.73-7.87-15.95-15.25-24.62-22.1l10.4-34.62c-11.85-8.53-24.35-16.2-37.42-22.92l-26.47,24.85
			c-9.83-4.49-19.98-8.38-30.42-11.64l-2.81-36.09c-14.08-3.7-28.56-6.38-43.38-7.97l-15.69,32.7c-5.34-0.33-10.73-0.49-16.16-0.49
			c-5.43,0-10.81,0.17-16.16,0.49l-15.69-32.7c-14.82,1.59-29.3,4.27-43.38,7.97L293.57-673c-10.44,3.26-20.59,7.16-30.42,11.64
			l-26.47-24.85c-13.07,6.72-25.57,14.39-37.42,22.92l10.4,34.62c-8.67,6.85-16.89,14.23-24.62,22.1l-33.69-13.62
			c-9.65,10.79-18.52,22.3-26.52,34.43L147-557.29c-5.79,9.69-10.97,19.8-15.49,30.25l-36.36-0.53c-5,13.27-9.08,27-12.15,41.11
			l30.94,18.54c-1.95,11.37-3.17,22.99-3.6,34.82l-34.07,12.63c0.14,14.31,1.29,28.37,3.39,42.12l35.5,6.1
			c2.36,11.93,5.54,23.57,9.47,34.86l-27.19,24.07c5.2,12.95,11.3,25.45,18.21,37.42l35.33-7.14c6.66,10.45,14.04,20.39,22.07,29.76
			l-16.63,32.22c9.4,9.99,19.48,19.34,30.18,27.94l30.36-19.42c10.14,7.45,20.83,14.18,32,20.13l-3.87,36.01
			c12.21,5.8,24.88,10.78,37.94,14.88l21.33-29.13c12.19,3.24,24.73,5.62,37.55,7.07l9.38,34.89c6.72,0.46,13.5,0.69,20.33,0.69
			c6.84,0,13.61-0.24,20.33-0.69l9.38-34.89c12.82-1.45,25.36-3.83,37.55-7.07l21.33,29.13c13.06-4.1,25.73-9.09,37.94-14.88
			l-3.87-36.01c11.17-5.95,21.87-12.68,32-20.13l30.36,19.42c10.7-8.61,20.78-17.95,30.18-27.94l-16.63-32.22
			c8.03-9.37,15.41-19.31,22.07-29.76l35.33,7.14c6.91-11.97,13-24.47,18.2-37.42l-27.19-24.07c3.93-11.29,7.1-22.92,9.47-34.86
			L663.57-378.36z"/>
		<circle class="st2" cx="371.61" cy="-422.54" r="131.1"/>
	</g>
	<g class="st16">
		<g>
			<polygon class="st3" points="420.47,-555.68 512.58,-528.66 369.11,-195.74 345.58,-196.05 			"/>
		</g>
		<g>
			<path class="st4" d="M669.58-771.05c-24,8-49,8-73,15c-1.07,0.54-2.15,0.92-3.22,1.17l-89.31,223.21l91.92,36.78l109.6-273.91
				l-17.67-7.07C681.74-774.63,675.61-773.16,669.58-771.05z"/>
		</g>
		<g>
			<polygon class="st3" points="652.35,-555.68 560.24,-528.66 703.71,-195.74 727.58,-196.05 			"/>
		</g>
		<path class="st5" d="M476.22-509.5c-1.64,13.45-50.99,68.89-74.64,165.45c-13.72,56.02-32.07,105.97-29.43,140.53l120.3-279.16
			C489.43-497.98,477.2-517.47,476.22-509.5z"/>
		<path class="st5" d="M599.52-501.46c1.64,13.45,50.99,68.89,74.64,165.45c13.72,56.02,32.07,105.97,29.43,140.53L583.3-474.63
			C586.31-489.93,598.55-509.43,599.52-501.46z"/>
		<g>
			<path class="st3" d="M671.24-762.77l-89.31,223.21l26.53,12.82l99.6-248.94C692.48-773.02,672.32-763.02,671.24-762.77z"/>
		</g>
		<g>
			<polygon class="st5" points="830.62,-773.71 831.53,-765.66 586.58,-738.05 590.58,-748.05 			"/>
		</g>
		<g>
			<path class="st6" d="M901.52-805.56l2.27,20.08c0.37,3.25-1.97,6.18-5.22,6.55l-393.12,44.37c-3.25,0.37-6.18-1.97-6.55-5.22
				l-2.27-20.08c-0.37-3.25,1.97-6.18,5.22-6.55l393.12-44.37C898.22-811.15,901.15-808.81,901.52-805.56z"/>
		</g>
		<g>
			<path class="st7" d="M736.58-495.76v17.77c-199.27,1.73-344.57,1.25-370.02,0c-7.16-0.35-21.4-1.58-33.98-11.06
				c0,0-9.33-7.02-15.53-18.86c-11.1-21.18-84.42-204.67-182.07-455.04c0.31-0.12,0.61-0.25,0.92-0.37
				c50.25-20.11,107.29,4.33,127.4,54.58l132.74,331.75h259.31C700.22-576.99,736.58-540.63,736.58-495.76z"/>
		</g>
		<path class="st8" d="M363.8-477.76c26.75,1.15,157.02,1.61,337.33,0.21c-26.54-11.31-92.16-19.32-168.92-19.32
			C455.93-496.87,390.65-488.96,363.8-477.76z"/>
	</g>
	<path class="st17" d="M918.88-515.85c3.09-20.2,4.78-40.86,4.98-61.88l-50.05-18.55c-0.64-17.37-2.43-34.44-5.29-51.15l45.46-27.23
		c-4.51-20.72-10.5-40.89-17.85-60.39l-53.42,0.78c-4.6-10.65-9.69-21.05-15.2-31.17l-131.2,14.79l-33.75,84.35
		c12.8,25.78,20.02,54.83,20.02,85.56c0,3.05-0.08,6.07-0.22,9.08c30.54,11.68,52.24,41.24,52.24,75.88v17.77
		c-12.14,0.11-24.09,0.2-35.81,0.29c0.12,0.05,0.24,0.1,0.36,0.15c-10.99,0.09-21.78,0.16-32.38,0.24l43.88,209.76
		c2.2-1.55,4.38-3.11,6.55-4.7l44.61,28.53c15.72-12.65,30.53-26.37,44.34-41.05l-24.44-47.33c11.8-13.76,22.65-28.37,32.43-43.72
		l51.9,10.49c10.15-17.58,19.1-35.95,26.74-54.97l-39.95-35.36c5.77-16.58,10.44-33.68,13.91-51.21L918.88-515.85z"/>
	<path class="st17" d="M342.82-705.02c35.33-41.79,88.13-68.33,147.13-68.33c13,0,25.7,1.3,37.98,3.75l312.34-35.25l12.21-15.69
		c-11.75-17.82-24.79-34.73-38.97-50.59l-49.5,20.01c-11.35-11.56-23.43-22.41-36.16-32.46l15.28-50.86
		c-17.4-12.52-35.77-23.79-54.97-33.67l-38.89,36.51c-14.44-6.59-29.35-12.32-44.69-17.1l-4.13-53.01
		c-20.68-5.43-41.96-9.37-63.73-11.71l-23.05,48.04c-7.85-0.48-15.77-0.73-23.74-0.73c-7.97,0-15.89,0.25-23.74,0.73l-23.05-48.04
		c-21.76,2.33-43.05,6.28-63.73,11.71l-4.13,53.01c-15.33,4.79-30.25,10.51-44.69,17.1l-38.89-36.51
		c-17.07,8.78-33.48,18.67-49.14,29.56c7.77,8.48,14.17,18.48,18.7,29.79L342.82-705.02z"/>
	<path class="st18" d="M125.56-918.72"/>
	<path class="st18" d="M330.56-744.72c-5.47-31.99-12.88-179.08-81-207c-36.03-14.76-101-47-123-10c3,16.5,10.25,38.25,18,56.88
		c0,0,7.34,20.28,14,31.26l-22.22,11.06c-16.73,8.33-28.1,23.63-31.87,40.94c-17.43,6.28-27.05,25.21-21.59,43.13l19.84,65.04
		c4.66,15.28,18.82,25.03,34.03,24.78l7.88,26.1c-1.07,0.22-2.13,0.48-3.2,0.81h0c-18.49,5.64-28.91,25.2-23.27,43.69L138-552.99
		c5.64,18.49,25.2,28.91,43.69,23.27l0,0c1.37-0.42,2.68-0.92,3.96-1.48c8.58,13.11,25.87,18.62,40.88,11.6l3.11-1.46
		c9.09-4.25,14.81-13.09,15.35-22.71C262.62-561.61,353.52-610.48,330.56-744.72z M236.99-582.24l-70.48-295.3l-0.53,0.27
		c-4.16-11.88-15.57-44.39-30.41-86.45c13-12,42.84-9.64,75,3c47.6,18.71,79.76,123.32,87,165
		C328.38-618.31,271.79-608.78,236.99-582.24z"/>
	<g class="st16">
		<path class="st1" d="M838.62-830.94l0.35,3.09c1.44,12.75-7.73,24.25-20.48,25.69l-231.32,26.11
			c-12.75,1.44-24.25-7.73-25.69-20.48l-0.35-3.09c-1.44-12.75,7.73-24.25,20.48-25.69l231.32-26.11
			C825.68-852.86,837.18-843.69,838.62-830.94z"/>
	</g>
	<g class="st16">
		<path class="st11" d="M859.97-882.84l0.35,3.09c1.44,12.75-7.73,24.25-20.48,25.69l-231.32,26.11
			c-12.75,1.44-24.25-7.73-25.69-20.48l-0.35-3.09c-1.44-12.75,7.73-24.25,20.48-25.69l231.32-26.11
			C847.03-904.76,858.53-895.59,859.97-882.84z"/>
	</g>
	<rect x="-9.44" y="-1052.72" class="st19" width="1022" height="964"/>
	<g class="st16">
		<path class="st1" d="M925.66-518.62c3.04-19.86,4.7-40.16,4.9-60.82l-49.2-18.24c-0.62-17.07-2.39-33.85-5.2-50.27l44.68-26.77
			c-4.43-20.37-10.32-40.19-17.55-59.36l-52.51,0.77c-6.53-15.1-14.01-29.68-22.37-43.68l32-41.11
			c-11.55-17.52-24.36-34.13-38.3-49.72l-48.65,19.67c-11.16-11.36-23.03-22.02-35.55-31.91l15.02-49.99
			c-17.11-12.31-35.16-23.39-54.03-33.1l-38.22,35.88c-14.19-6.48-28.85-12.11-43.92-16.81l-4.06-52.11
			c-20.33-5.34-41.25-9.21-62.64-11.51l-22.66,47.22c-7.72-0.47-15.5-0.71-23.33-0.71s-15.62,0.24-23.33,0.71l-22.66-47.22
			c-21.39,2.29-42.31,6.17-62.64,11.51l-4.06,52.11c-15.07,4.71-29.73,10.33-43.92,16.81l-38.22-35.88
			c-18.87,9.71-36.92,20.79-54.03,33.1l15.02,49.99c-12.51,9.89-24.39,20.55-35.55,31.91l-48.65-19.67
			c-13.94,15.59-26.75,32.2-38.3,49.72l32,41.11c-8.36,14-15.85,28.59-22.37,43.68l-52.51-0.77c-7.23,19.17-13.12,38.99-17.55,59.36
			l44.68,26.77c-2.82,16.42-4.58,33.2-5.2,50.27l-49.2,18.24c0.2,20.66,1.86,40.97,4.9,60.82l51.26,8.81
			c3.42,17.23,8,34.03,13.67,50.33l-39.27,34.76c7.51,18.7,16.31,36.75,26.29,54.04L185.44-381c9.62,15.09,20.28,29.45,31.88,42.98
			L193.3-291.5c13.57,14.43,28.13,27.92,43.58,40.35l43.85-28.05c14.64,10.75,30.07,20.48,46.21,29.07l-5.59,52
			c17.63,8.37,35.92,15.57,54.78,21.49l30.81-42.06c17.6,4.67,35.71,8.11,54.22,10.2l13.54,50.38c9.7,0.66,19.49,1,29.36,1
			s19.66-0.34,29.36-1l13.54-50.38c18.51-2.09,36.62-5.53,54.22-10.2L632-176.63c18.86-5.92,37.15-13.12,54.78-21.49l-5.59-52
			c16.14-8.59,31.58-18.31,46.21-29.07l43.85,28.05c15.45-12.43,30.01-25.92,43.58-40.35l-24.02-46.52
			c11.6-13.53,22.26-27.89,31.88-42.98l51.02,10.31c9.98-17.28,18.77-35.33,26.29-54.04l-39.27-34.76
			c5.67-16.3,10.26-33.1,13.67-50.33L925.66-518.62z"/>
		<circle class="st2" cx="499.56" cy="-577.91" r="187.32"/>
	</g>
</g>
</svg>
