<?xml version="1.0" encoding="utf-8"?>
<!-- Generator: Adobe Illustrator 24.1.1, SVG Export Plug-In . SVG Version: 6.00 Build 0)  -->
<svg version="1.1" id="Capa_1" xmlns="http://www.w3.org/2000/svg" xmlns:xlink="http://www.w3.org/1999/xlink" x="0px" y="0px"
	 viewBox="0 0 1022 964" style="enable-background:new 0 0 1022 964;" xml:space="preserve">
<style type="text/css">
	.st0{fill:#FCC112;}
	.st1{fill:#FFFFFF;}
	.st2{fill:#666666;}
	.st3{fill:#808080;}
	.st4{fill:#4D4D4D;}
	.st5{fill:#A67C52;}
	.st6{fill:#F7931E;}
	.st7{fill:#883500;}
	.st8{fill:#333333;}
	.st9{fill:#E06110;}
	.st10{fill:#F15A24;}
</style>
<g>
	<path class="st0" d="M673.01,674.36c2.1-13.75,3.25-27.81,3.39-42.12l-34.07-12.63c-0.43-11.82-1.65-23.44-3.6-34.82l30.94-18.54
		c-3.07-14.1-7.15-27.83-12.15-41.11l-36.36,0.53c-4.52-10.45-9.7-20.56-15.49-30.25l22.16-28.47c-8-12.13-16.87-23.64-26.52-34.43
		l-33.69,13.62c-7.73-7.87-15.95-15.25-24.62-22.1l10.4-34.62c-11.85-8.53-24.35-16.2-37.42-22.92l-26.47,24.85
		c-9.83-4.49-19.98-8.38-30.42-11.64l-2.81-36.09c-14.08-3.7-28.56-6.38-43.38-7.97l-15.69,32.7c-5.34-0.33-10.73-0.49-16.16-0.49
		s-10.81,0.17-16.16,0.49l-15.69-32.7c-14.82,1.59-29.3,4.27-43.38,7.97l-2.81,36.09c-10.44,3.26-20.59,7.16-30.42,11.64
		l-26.47-24.85c-13.07,6.72-25.57,14.39-37.42,22.92l10.4,34.62c-8.67,6.85-16.89,14.23-24.62,22.1l-33.69-13.62
		c-9.65,10.79-18.52,22.3-26.52,34.43l22.16,28.47c-5.79,9.69-10.97,19.8-15.49,30.25l-36.36-0.53c-5,13.27-9.08,27-12.15,41.11
		l30.94,18.54c-1.95,11.37-3.17,22.99-3.6,34.82L85.7,632.24c0.14,14.31,1.29,28.37,3.39,42.12l35.5,6.1
		c2.36,11.93,5.54,23.57,9.47,34.86l-27.19,24.07c5.2,12.95,11.3,25.45,18.21,37.42l35.33-7.14c6.66,10.45,14.04,20.39,22.07,29.76
		l-16.63,32.22c9.4,9.99,19.48,19.34,30.18,27.94l30.36-19.42c10.14,7.45,20.83,14.18,32,20.13l-3.87,36.01
		c12.21,5.8,24.88,10.78,37.94,14.88l21.33-29.13c12.19,3.24,24.73,5.62,37.55,7.07l9.38,34.89c6.72,0.46,13.5,0.69,20.33,0.69
		s13.61-0.24,20.33-0.69l9.38-34.89c12.82-1.45,25.36-3.83,37.55-7.07l21.33,29.13c13.06-4.1,25.73-9.09,37.94-14.88l-3.87-36.01
		c11.17-5.95,21.87-12.68,32-20.13l30.36,19.42c10.7-8.61,20.78-17.95,30.18-27.94l-16.63-32.22c8.03-9.37,15.41-19.31,22.07-29.76
		l35.33,7.14c6.91-11.97,13-24.47,18.2-37.42l-27.19-24.07c3.93-11.29,7.1-22.92,9.47-34.86L673.01,674.36z"/>
	<circle class="st1" cx="381.05" cy="630.18" r="131.1"/>
</g>
<g>
	<g>
		<polygon class="st2" points="429.91,497.04 522.02,524.06 378.55,856.98 355.02,856.67 		"/>
	</g>
	<g>
		<path class="st3" d="M679.02,281.67c-24,8-49,8-73,15c-1.07,0.54-2.15,0.92-3.22,1.17l-89.31,223.21l91.92,36.78L715,283.91
			l-17.67-7.07C691.18,278.09,685.05,279.56,679.02,281.67z"/>
	</g>
	<g>
		<polygon class="st2" points="661.79,497.04 569.68,524.06 713.15,856.98 737.02,856.67 		"/>
	</g>
	<path class="st4" d="M485.66,543.22c-1.64,13.45-50.99,68.89-74.64,165.45c-13.72,56.02-32.07,105.97-29.43,140.53l120.3-279.16
		C498.87,554.74,486.64,535.25,485.66,543.22z"/>
	<path class="st4" d="M608.96,551.26c1.64,13.45,50.99,68.89,74.64,165.45c13.72,56.02,32.07,105.97,29.43,140.53l-120.3-279.16
		C595.75,562.79,607.99,543.29,608.96,551.26z"/>
	<g>
		<path class="st2" d="M680.68,289.95l-89.31,223.21l26.53,12.82l99.6-248.94C701.92,279.7,681.76,289.7,680.68,289.95z"/>
	</g>
	<g>
		<polygon class="st4" points="840.06,279.01 840.97,287.06 596.02,314.67 600.02,304.67 		"/>
	</g>
	<g>
		<path class="st5" d="M910.96,247.16l2.27,20.08c0.37,3.25-1.97,6.18-5.22,6.55l-393.12,44.37c-3.25,0.37-6.18-1.97-6.55-5.22
			l-2.27-20.08c-0.37-3.25,1.97-6.18,5.22-6.55l393.12-44.37C907.66,241.57,910.59,243.91,910.96,247.16z"/>
	</g>
	<g>
		<path class="st6" d="M746.02,556.96v17.77c-199.27,1.73-344.57,1.25-370.02,0c-7.16-0.35-21.4-1.58-33.98-11.06
			c0,0-9.33-7.02-15.53-18.86c-11.1-21.18-84.42-204.67-182.07-455.04c0.31-0.12,0.61-0.25,0.92-0.37
			c50.25-20.11,107.29,4.33,127.4,54.58l132.74,331.75h259.31C709.66,475.73,746.02,512.09,746.02,556.96z"/>
	</g>
	<path class="st7" d="M373.24,574.96c26.75,1.15,157.02,1.61,337.33,0.21c-26.54-11.31-92.16-19.32-168.92-19.32
		C465.37,555.85,400.09,563.76,373.24,574.96z"/>
</g>
<path class="st8" d="M928.32,536.87c3.09-20.2,4.78-40.86,4.98-61.88l-50.05-18.55c-0.64-17.37-2.43-34.44-5.29-51.15l45.46-27.23
	c-4.51-20.72-10.5-40.89-17.85-60.39l-53.42,0.78c-4.6-10.65-9.69-21.05-15.2-31.17l-131.2,14.79l-33.75,84.35
	c12.8,25.78,20.02,54.83,20.02,85.56c0,3.05-0.08,6.07-0.22,9.08c30.54,11.68,52.24,41.24,52.24,75.88v17.77
	c-12.14,0.11-24.09,0.2-35.81,0.29c0.12,0.05,0.24,0.1,0.36,0.15c-10.99,0.09-21.78,0.16-32.38,0.24l43.88,209.76
	c2.2-1.55,4.38-3.11,6.55-4.7l44.61,28.53c15.72-12.65,30.53-26.37,44.34-41.05l-24.44-47.33c11.8-13.76,22.65-28.37,32.43-43.72
	l51.9,10.49c10.15-17.58,19.1-35.95,26.74-54.97l-39.95-35.36c5.77-16.58,10.44-33.68,13.91-51.21L928.32,536.87z"/>
<path class="st8" d="M352.26,347.7c35.33-41.79,88.13-68.33,147.13-68.33c13,0,25.7,1.3,37.98,3.75l312.34-35.25l12.21-15.69
	c-11.75-17.82-24.79-34.73-38.97-50.59l-49.5,20.01c-11.35-11.56-23.43-22.41-36.16-32.46l15.28-50.86
	c-17.4-12.52-35.77-23.79-54.97-33.67l-38.89,36.51c-14.44-6.59-29.35-12.32-44.69-17.1L609.91,51
	c-20.68-5.43-41.96-9.37-63.73-11.71l-23.05,48.04c-7.85-0.48-15.77-0.73-23.74-0.73c-7.97,0-15.89,0.25-23.74,0.73L452.61,39.3
	c-21.76,2.33-43.05,6.28-63.73,11.71l-4.13,53.01c-15.33,4.79-30.25,10.51-44.69,17.1l-38.89-36.51
	c-17.07,8.78-33.48,18.67-49.14,29.56c7.77,8.48,14.17,18.48,18.7,29.79L352.26,347.7z"/>
<path class="st9" d="M135,134"/>
<path class="st9" d="M340,308c-5.47-31.99-12.88-179.08-81-207c-36.03-14.76-101-47-123-10c3,16.5,10.25,38.25,18,56.88
	c0,0,7.34,20.28,14,31.26l-22.22,11.06c-16.73,8.33-28.1,23.63-31.87,40.94c-17.43,6.28-27.05,25.21-21.59,43.13l19.84,65.04
	c4.66,15.28,18.82,25.03,34.03,24.78l7.88,26.1c-1.07,0.22-2.13,0.48-3.2,0.81h0c-18.49,5.64-28.91,25.2-23.27,43.69l19.84,65.04
	c5.64,18.49,25.2,28.91,43.69,23.27l0,0c1.37-0.42,2.68-0.92,3.96-1.48c8.58,13.11,25.87,18.62,40.88,11.6l3.11-1.46
	c9.09-4.25,14.81-13.09,15.35-22.71C272.06,491.11,362.96,442.24,340,308z M246.43,470.48l-70.48-295.3l-0.53,0.27
	C171.26,163.57,159.84,131.06,145,89c13-12,42.84-9.64,75,3c47.6,18.71,79.76,123.32,87,165
	C337.82,434.41,281.23,443.94,246.43,470.48z"/>
<g>
	<path class="st0" d="M848.06,221.78l0.35,3.09c1.44,12.75-7.73,24.25-20.48,25.69L596.6,276.67c-12.75,1.44-24.25-7.73-25.69-20.48
		l-0.35-3.09c-1.44-12.75,7.73-24.25,20.48-25.69l231.32-26.11C835.12,199.86,846.62,209.03,848.06,221.78z"/>
</g>
<g>
	<path class="st10" d="M869.41,169.88l0.35,3.09c1.44,12.75-7.73,24.25-20.48,25.69l-231.32,26.11
		c-12.75,1.44-24.25-7.73-25.69-20.48l-0.35-3.09c-1.44-12.75,7.73-24.25,20.48-25.69l231.32-26.11
		C856.47,147.96,867.97,157.13,869.41,169.88z"/>
</g>
</svg>
