<?xml version="1.0" encoding="utf-8"?>
<!-- Generator: Adobe Illustrator 24.1.1, SVG Export Plug-In . SVG Version: 6.00 Build 0)  -->
<svg version="1.1" id="Capa_1" xmlns="http://www.w3.org/2000/svg" xmlns:xlink="http://www.w3.org/1999/xlink" x="0px" y="0px"
	 viewBox="0 0 530 530" style="enable-background:new 0 0 530 530;" xml:space="preserve">
<style type="text/css">
	.st0{fill:#CECECE;}
	.st1{fill:#BFBFBF;}
	.st2{fill:#E7E7E7;}
</style>
<g>
	<path class="st0" d="M414,256.24c-12.25-0.02-22.11,9.89-22.11,22.23c-0.01,12.32,9.9,22.31,22.09,22.28
		c12.29-0.03,22.16-9.95,22.17-22.26C436.17,266.16,426.31,256.26,414,256.24z"/>
	<path class="st1" d="M295.58,421.61c-0.01,3.6,2.44,6.29,6.01,5.68c2.32-0.4,4.28-2.94,6.39-4.52c0-0.79,0-1.58,0.01-2.36
		c-2.12-1.53-4.07-3.93-6.41-4.39C297.88,415.3,295.59,418.03,295.58,421.61z"/>
	<path class="st2" d="M495.46,196.23c-18.54-58.76-53.83-104.34-106.2-136.86c-18.74,27.99-20,70.73,5.59,104.34
		C421.44,198.62,464.3,207.25,495.46,196.23z"/>
	<path class="st2" d="M297.95,268.18c-0.03-5.59-4.5-10.02-10.14-10.05c-5.6-0.03-10.22,4.41-10.33,9.94
		c-0.12,5.65,4.79,10.52,10.47,10.39C293.51,278.34,297.97,273.76,297.95,268.18z"/>
	<path class="st2" d="M383.57,173.52c-29.42-38.02-31.22-79.45-8.54-121.78c-90.65-49.6-216.66-32.83-294.99,60.08
		C2.94,203.27,7.2,341.68,88.9,428.42c85.47,90.74,211.08,94.25,291.75,46.85c-0.89-0.8-1.7-1.57-2.54-2.29
		c-26.46-22.55-31.63-61.05-11.96-89.69c7.95-11.57,18.55-19.85,31.76-24.7c4.8-1.76,8.96,0.04,10.61,4.39
		c1.42,3.75-0.47,7.58-4.8,9.64c-1.2,0.57-2.49,0.94-3.68,1.52c-17.39,8.34-27.71,22.07-29.91,41.21
		c-2.33,20.32,4.98,36.78,21.59,48.99c2.57,1.89,4.51,2.15,7.43,0.16c26.05-17.69,47.82-39.59,65.56-65.59
		c1.81-2.65,2.15-4.79-0.14-6.93c-5.78-5.39-11.35-11.11-17.67-15.81c-3.6-2.68-8.49-3.61-12.79-5.34
		c-4.35-1.75-6.39-5.56-5.09-9.47c1.33-4.02,5.19-6.21,9.53-4.91c4.43,1.34,9.18,2.46,12.97,4.94c8.51,5.55,16.51,11.89,25.03,18.13
		c27.9-52.38,35.82-108.54,23.06-167.83C452.63,223.17,412.98,211.52,383.57,173.52z M262.19,268.32
		c-0.04-14.15,11.49-25.56,25.74-25.47c14.29,0.08,25.41,11.47,25.25,25.85c-0.16,13.88-11.8,25.31-25.63,25.16
		C273.7,293.7,262.23,282.15,262.19,268.32z M301.21,442.75c-11.7-0.08-21.22-9.78-21.04-21.44c0.18-11.69,9.82-20.94,21.64-20.77
		c11.59,0.17,20.76,9.51,20.73,21.12C322.52,433.4,312.98,442.83,301.21,442.75z M328.88,142.46c-3.55,8.33-6.95,17.09-12.36,24.2
		c-18.14,23.86-50.98,31.92-78.58,20.26c-28.27-11.94-44.57-40.76-40.63-71.84c3.62-28.57,27.26-52.41,56.39-56.86
		c31.8-4.85,62.78,13.3,73.47,43.05c2.3,6.4-1.06,11.89-7.05,11.49c-4.37-0.29-6.01-3.41-7.47-6.99
		c-6.52-15.92-18.02-26.57-34.6-31.23c-33.28-9.35-66.16,15.87-65.98,50.42c0.13,25,18.19,46.83,42.21,51.03
		c25.82,4.51,50.09-9.33,58.87-33.58c0.57-1.56,1-3.17,1.66-4.69c1.78-4.15,5.29-5.9,9.17-4.67
		C328.13,134.37,330.73,138.11,328.88,142.46z M413.84,315.96c-20.63-0.05-37.32-16.9-37.25-37.6c0.07-20.75,16.77-37.36,37.5-37.31
		c20.59,0.05,37.5,17.04,37.39,37.56C451.36,299.21,434.43,316,413.84,315.96z"/>
	<path d="M433.19,73.03C363.8,13.57,283.92-3.84,195.56,19.37C103.47,43.56,28.79,126.21,13.64,220.01
		c-1.56,9.65-2.67,19.37-3.99,29.06c0,10.65,0,21.29,0,31.94c1.3,9.52,2.39,19.08,3.94,28.56
		c16.21,99.74,97.08,184.23,196.31,204.88c11.68,2.43,23.63,3.52,35.45,5.26c1.29,0.19,2.56,0.55,3.84,0.83c10.65,0,21.29,0,31.94,0
		c1.44-0.29,2.88-0.64,4.33-0.87c13.76-2.2,27.78-3.37,41.25-6.74c125.32-31.31,206.5-148.5,191.98-277.5
		C511.36,170.37,482.79,115.54,433.19,73.03z M389.26,59.38c52.37,32.51,87.66,78.09,106.2,136.86
		c-31.17,11.02-74.03,2.39-100.61-32.52C369.26,130.1,370.52,87.37,389.26,59.38z M476.54,379.53
		c-8.52-6.24-16.52-12.57-25.03-18.13c-3.79-2.47-8.54-3.6-12.97-4.94c-4.34-1.31-8.19,0.89-9.53,4.91
		c-1.3,3.91,0.74,7.72,5.09,9.47c4.3,1.73,9.2,2.66,12.79,5.34c6.31,4.7,11.88,10.42,17.67,15.81c2.29,2.14,1.96,4.27,0.14,6.93
		c-17.74,26-39.51,47.89-65.56,65.59c-2.92,1.98-4.86,1.72-7.43-0.16c-16.61-12.2-23.92-28.67-21.59-48.99
		c2.19-19.14,12.51-32.87,29.91-41.21c1.2-0.57,2.49-0.95,3.68-1.52c4.33-2.06,6.22-5.9,4.8-9.64c-1.65-4.35-5.81-6.16-10.61-4.39
		c-13.2,4.85-23.81,13.13-31.76,24.7c-19.67,28.65-14.5,67.15,11.96,89.69c0.85,0.72,1.65,1.49,2.54,2.29
		c-80.67,47.4-206.28,43.89-291.75-46.85C7.2,341.68,2.94,203.27,80.05,111.82C158.38,18.91,284.38,2.14,375.04,51.74
		c-22.68,42.33-20.88,83.77,8.54,121.78c29.41,38,69.06,49.65,116.03,38.18C512.36,270.99,504.44,327.15,476.54,379.53z"/>
	<path d="M323.96,133.05c-3.88-1.23-7.4,0.52-9.17,4.67c-0.65,1.52-1.09,3.13-1.66,4.69c-8.78,24.24-33.05,38.08-58.87,33.58
		c-24.02-4.19-42.08-26.03-42.21-51.03c-0.18-34.55,32.7-59.77,65.98-50.42c16.59,4.66,28.08,15.31,34.6,31.23
		c1.47,3.58,3.1,6.7,7.47,6.99c5.99,0.4,9.35-5.09,7.05-11.49c-10.69-29.75-41.67-47.91-73.47-43.05
		c-29.13,4.45-52.77,28.28-56.39,56.86c-3.94,31.09,12.36,59.9,40.63,71.84c27.59,11.65,60.44,3.6,78.58-20.26
		c5.4-7.11,8.81-15.87,12.36-24.2C330.73,138.11,328.13,134.37,323.96,133.05z M313.21,90.86h9v9h-9V90.86z"/>
	<path d="M414.09,241.04c-20.73-0.05-37.43,16.56-37.5,37.31c-0.07,20.71,16.62,37.56,37.25,37.6
		c20.59,0.05,37.52-16.75,37.63-37.35C451.59,258.09,434.68,241.1,414.09,241.04z M413.99,300.74c-12.19,0.03-22.1-9.95-22.09-22.28
		c0.01-12.34,9.86-22.25,22.11-22.23c12.31,0.02,22.16,9.92,22.15,22.25C436.15,290.8,426.27,300.71,413.99,300.74z"/>
	<path d="M313.18,268.69c0.17-14.39-10.95-25.77-25.25-25.85c-14.26-0.08-25.78,11.32-25.74,25.47
		c0.04,13.83,11.51,25.38,25.36,25.53C301.38,294,313.02,282.58,313.18,268.69z M277.47,268.07c0.12-5.53,4.73-9.97,10.33-9.94
		c5.64,0.03,10.12,4.46,10.14,10.05c0.03,5.58-4.43,10.16-10.01,10.29C282.26,278.59,277.35,273.72,277.47,268.07z"/>
	<path d="M301.81,400.54c-11.82-0.17-21.47,9.08-21.64,20.77c-0.18,11.65,9.35,21.35,21.04,21.44c11.77,0.08,21.31-9.35,21.34-21.09
		C322.57,410.05,313.4,400.7,301.81,400.54z M307.98,422.78c-2.12,1.58-4.07,4.12-6.39,4.52c-3.57,0.61-6.01-2.08-6.01-5.68
		c0.01-3.58,2.3-6.32,6-5.59c2.33,0.46,4.28,2.86,6.41,4.39C307.99,421.2,307.98,421.99,307.98,422.78z"/>
	<rect x="313.21" y="90.86" width="9" height="9"/>
</g>
<path class="st0" d="M408.25,368.14c-0.77,1.86-2.4,3.5-4.74,4.62c-1.2,0.57-2.49,0.94-3.68,1.52
	c-17.39,8.34-27.71,22.07-29.91,41.21c-2.33,20.32,4.98,36.78,21.59,48.99c2.57,1.89,4.51,2.15,7.43,0.16
	c26.05-17.69,47.82-39.59,65.56-65.59c1.81-2.65,2.15-4.79-0.14-6.93c-5.78-5.39-11.35-11.11-17.67-15.81
	c-3.6-2.68-8.49-3.61-12.79-5.34c-2.51-1.01-4.25-2.71-5.02-4.71c-1.77-0.17-3.56-0.26-5.38-0.26
	C418.21,366,413.1,366.76,408.25,368.14z"/>
</svg>
