<?xml version="1.0" encoding="utf-8"?>
<!-- Generator: Adobe Illustrator 24.1.1, SVG Export Plug-In . SVG Version: 6.00 Build 0)  -->
<svg version="1.1" id="Capa_1" xmlns="http://www.w3.org/2000/svg" xmlns:xlink="http://www.w3.org/1999/xlink" x="0px" y="0px"
	 viewBox="0 0 530 530" style="enable-background:new 0 0 530 530;" xml:space="preserve">
<style type="text/css">
	.st0{fill:#FFD900;}
	.st1{fill:none;}
</style>
<g>
	<path class="st0" d="M415.75,268.13c-3.33,195.03-293.39,195-296.69-0.01C122.39,73.1,412.45,73.13,415.75,268.13z"/>
	<path d="M265.43,108.95c-24.11-0.28-51.55,6.23-73.1,18.19c-7.4,6.11-35.99,16.57-27.47,28.32c3.28,5.05,10.23,2.16,14.2-1.74
		c98.99-81.29,254.49,17.51,223.03,142.01c-66.67,220.61-376.93,71.24-247.27-118.12c3.78-4.8,3.57-9.08-0.15-11.81
		c-3.99-2.92-8.52-2.06-12.04,2.53c-28.99,37.8-39.73,80.34-30.51,127c16.52,83.65,95.75,137.43,180.1,123.18
		C476.22,386.96,452.21,108.87,265.43,108.95z"/>
	<g>
		<path class="st1" d="M89.5,342.64c-0.71-16.42-17.33-5.75-25.55-2.31c-8.89,3.98-3.27,17.3,5.89,13.51
			C76.5,351.15,85.61,348.88,89.5,342.64z"/>
		<path class="st1" d="M87.09,184.23c-6.34-3.73-13.3-6.43-20.83-9.88c-17.57,11.65,5.13,18.99,15.5,21.89
			C87.66,196.72,91.39,188.25,87.09,184.23z"/>
		<path class="st1" d="M109.98,143.39c15.77,13.64,39.79,1.29,39.06-21.09c-4.21-15.77-21.22-27.91-32.6-39.3
			c-9.25-8.25-23.37-6.91-32.01,1.99C63.6,107.77,95.03,128.34,109.98,143.39z"/>
		<path class="st1" d="M241.11,67.53c0.65,30.57,47.31,30.49,47.78-0.07c-0.28-20.95,6.45-56.69-23.92-57.47
			c-13.05,0.01-23.61,10.44-23.88,23.68C241.04,44.96,241,56.25,241.11,67.53z"/>
		<path class="st1" d="M183.08,85.66c4.24,5.29,13.52,4.4,14.27-4.03c-3.09-6.72-5.77-13.69-9.58-19.97
			c-0.95-1.57-6.21-2.13-8.28-0.98C171.28,67.25,179.9,78.42,183.08,85.66z"/>
		<path class="st1" d="M338.01,88.47c11.82,2.86,12.38-14.26,17.68-22.22c-3.62-5.66-8.83-8.81-13.87-4.13
			C339.06,69.93,328.47,82.01,338.01,88.47z"/>
		<path class="st1" d="M441.15,191.95c3.52,10.74,25.9-1.11,29.4-7.25c0.13-6.9-4.73-10.5-9.88-8.66
			C453.92,179.56,437.41,181.4,441.15,191.95z"/>
		<path class="st1" d="M408.04,148.99c15.54-4.38,27.53-21.25,38.87-32.48c8.25-9.21,7-23.4-1.82-32.04
			c-22.55-20.77-43.12,10.14-58.13,25C372.76,125.35,385.2,150.05,408.04,148.99z"/>
		<path class="st1" d="M467.05,340.98c-7.61-2.45-21.22-13.89-26.04-2.53c-1.42,3.89,0.09,7.13,3.53,8.8
			c8.36,3.2,24.79,15.06,26.02-1.67C469.89,344.65,468.92,341.92,467.05,340.98z"/>
		<path class="st1" d="M496.14,241.09c-11.12-0.14-22.24-0.16-33.35,0c-30.93,0.32-30.97,47.3-0.09,47.81
			c11.11,0.1,22.24,0.06,33.35,0.01C527.37,288.51,527.48,241.5,496.14,241.09z"/>
		<path class="st1" d="M135.06,383.42c-22.01-10.58-36.01,15.65-50.28,27.99c-9.44,9.77-9.45,24.21-0.31,33.6
			c21.62,21.37,42.6-8.52,57.56-23.2C152.26,411.82,151.68,390.16,135.06,383.42z"/>
		<path class="st1" d="M421.75,387.93c-22.34-21.49-55.29,11.34-33.82,33.76c13.18,11.04,22.26,30.17,41.44,30.64
			c19.16,0.22,31.1-26.23,16.6-40.06C438.19,403.88,430.03,395.84,421.75,387.93z"/>
		<path class="st1" d="M417.65,233.09c-20.62-112.06-164.35-162.94-251.04-89.01c-8.55,5.95,0.3,19.31,9.29,12.08
			c98.2-85.21,258.1,13.12,226.18,139.57c-66.67,220.61-376.93,71.24-247.27-118.12c8.65-9.67-5.56-19.07-12.19-9.28
			C52.98,275.18,154.95,446.74,292.22,418.5C378.16,403.99,436.07,318.39,417.65,233.09z"/>
		<path class="st1" d="M347.7,445.34c-3.86-9.51-17.58-3.39-13.63,5.83c2.67,6.61,4.91,15.8,11.34,19.4
			C361.79,469.5,350.86,453.62,347.7,445.34z"/>
		<path class="st1" d="M191.22,440.99c-10.5-3.11-11.63,13.76-15.39,20.35c-3.21,7.67,8.09,10.9,12.1,6.89
			c3.78-6.3,6.41-13.29,9.94-21.04C195.46,444.86,193.7,442.18,191.22,440.99z"/>
	</g>
	<path d="M260.03,520c-15.46-4.34-20.81-18.96-18.95-33.87c-0.9-19.21-2.18-46.68,23.92-46.96c29.7,0.54,23.72,34.85,23.94,55.43
		c0.23,13.31-7.16,20.76-18.95,25.41C266.67,520,263.35,520,260.03,520z M256.33,479.65c0.58,8.28-3.29,23.74,8.38,24.91
		c4.7,0.23,8.76-3.9,8.84-9.49c0.15-10.28,0.13-20.57,0.01-30.85c-0.07-5.77-3.71-9.63-8.6-9.6
		C252.96,455.22,256.94,471.35,256.33,479.65z"/>
	<path d="M10,260.01c4.07-13.9,16.81-20.68,30.88-18.94c19.75-0.49,49.63-3.53,49.95,23.92c-0.44,29.57-34.87,23.75-55.42,23.94
		c-13.3,0.23-20.79-7.17-25.41-18.95C10,266.65,10,263.33,10,260.01z M50.11,273.66c0-0.03,0-0.06,0-0.09
		c8.27-0.65,24.39,3.47,25.27-8.35c0.15-4.87-3.73-8.69-9.4-8.78c-10.43-0.16-20.87-0.19-31.3-0.09c-5.31,0.05-9.2,3.74-9.37,8.39
		C25.59,276.85,41.82,273.18,50.11,273.66z"/>
	<path d="M149.04,122.31c0.74,22.37-23.29,34.72-39.06,21.09C95.04,128.36,63.59,107.75,84.43,85c8.64-8.9,22.76-10.24,32.01-1.99
		C127.81,94.38,144.84,106.56,149.04,122.31z M134.22,125.76c-5.59-12.64-17.39-19.69-26.33-29.74c-6.78-8-19.71,2.42-13.29,10.18
		c8.3,8.8,16.88,17.36,25.83,25.49C125.72,135.12,131.43,131.11,134.22,125.76z"/>
	<path d="M408.04,148.99c-22.84,1.07-35.29-23.64-21.07-39.52c14.99-14.86,35.6-45.79,58.13-25c8.82,8.64,10.07,22.83,1.81,32.04
		C435.59,127.73,423.57,144.63,408.04,148.99z M437.89,100.96c-3.76-5.55-9.76-11.57-15.6-5.11c-7.64,7.38-15.18,14.85-22.64,22.41
		c-8.99,8.63,3.53,20.79,11.98,12C420.64,120.36,431.71,113.2,437.89,100.96z"/>
	<path d="M148.84,403.01c-0.11,20.64-18.91,28.56-30.41,42.37c-9.99,9.5-24.65,9.2-33.96-0.36c-20.58-22.03,9.9-42.94,24.68-57.79
		C122.32,373.02,149.32,385.3,148.84,403.01z M100.88,437.73c12.74-5.91,20.14-18.04,30.35-27.23c3.14-3.28,2.72-8.22-0.24-11.28
		c-9.81-10.78-27.9,17.98-35.85,24.03C91.15,428.86,95.23,434.76,100.88,437.73z"/>
	<path d="M429.37,452.32c-19.19-0.45-28.26-19.6-41.45-30.63c-9.26-9.74-9.01-24.41,0.21-33.61c21.94-20.87,43.01,9.32,57.84,24.19
		C460.46,426.09,448.54,452.55,429.37,452.32z M437.59,429.06c-5.8-12.79-18.36-20.43-27.64-30.66c-3.26-3.04-7.48-2.28-10.89,0.68
		c-11.1,9.44,18.64,28.19,24.65,35.91C428.94,438.46,435.17,434.53,437.59,429.06z"/>
	<path d="M241.08,50.11c-1.81-17.81,1.74-39.98,23.89-40.11c30.37,0.79,23.63,36.5,23.92,57.47c-0.23,13.27-10.88,23.43-24.1,23.35
		C242.17,90.54,239.41,68.01,241.08,50.11z M273.6,50.41c-0.46-8.24,3.13-24.69-8.8-25c-4.74,0.17-8.41,4.35-8.44,9.9
		c-0.07,10.12-0.08,20.24,0,30.36c0.05,5.64,3.65,9.61,8.52,9.69C276.89,75.08,273.04,58.66,273.6,50.41z"/>
	<path d="M479.63,288.92c-17.96,1.73-40.41-1.39-40.44-23.98c0.71-30.26,36.11-23.5,56.96-23.85c13.33,0.17,23.76,10.63,23.86,23.69
		C520.06,287.18,497.63,290.74,479.63,288.92z M479.34,273.67c0-0.03,0-0.06,0-0.08c8.26-0.55,24.52,3.23,25.23-8.51
		c0.07-4.72-4.04-8.56-9.67-8.64c-10.27-0.14-20.53-0.17-30.8-0.09c-5.76,0.05-9.53,3.57-9.58,8.56
		C454.81,277.06,471.07,273.07,479.34,273.67z"/>
	<path d="M197.87,447.19c-3.52,7.75-6.16,14.74-9.94,21.04c-0.97,1.61-5.83,2.05-8.38,1.28c-9.89-4.76,1.28-17.99,3.32-25.13
		C186.86,436.57,193.91,441.93,197.87,447.19z"/>
	<path d="M355.7,66.25c-5.3,7.96-5.86,25.08-17.68,22.23c-9.55-6.46,1.04-18.54,3.81-26.36C346.86,57.45,352.07,60.58,355.7,66.25z"
		/>
	<path d="M197.35,81.63c-0.75,8.43-10.03,9.32-14.27,4.03c-3.13-5.39-5.6-11.34-7.16-17.37c-1-6.66,7.21-10.86,11.86-6.63
		C191.58,67.95,194.25,74.92,197.35,81.63z"/>
	<path d="M66.26,174.35c7.95,5.3,25.06,5.87,22.24,17.69c-6.45,9.57-18.54-1.03-26.35-3.8C57.46,183.2,60.59,178,66.26,174.35z"/>
	<path d="M470.55,184.7c-3.58,6.49-12.93,8.53-19.51,11.3c-9.23,3.83-15.13-10.04-5.52-13.74
		C453.77,179.08,469.75,168.25,470.55,184.7z"/>
	<path d="M470.56,345.59c-1.24,16.73-17.65,4.87-26.02,1.67c-7.9-3.04-2.83-16.58,5.12-13.49
		C456.56,336.79,467.17,338.28,470.56,345.59z"/>
	<path d="M345.41,470.57c-6.43-3.61-8.66-12.78-11.34-19.4c-3.95-9.22,9.78-15.35,13.63-5.83
		C350.87,453.62,361.79,469.51,345.41,470.57z"/>
	<path d="M89.5,342.64c-4.05,5.88-24.9,17.54-29.37,7.7c-1.75-3.74-0.26-8.1,3.82-10C72.16,336.89,88.79,326.23,89.5,342.64z"/>
	<path class="st0" d="M256.33,479.65c0.6-8.29-3.37-24.43,8.63-25.03c4.89-0.03,8.53,3.84,8.6,9.6c0.12,10.28,0.14,20.57-0.01,30.85
		c-0.08,5.59-4.14,9.72-8.84,9.49C253.04,503.38,256.92,487.93,256.33,479.65z"/>
	<path class="st0" d="M50.11,273.66c-8.28-0.47-24.53,3.18-24.79-8.91c0.17-4.65,4.05-8.34,9.37-8.39
		c10.43-0.11,20.87-0.08,31.3,0.09c5.67,0.09,9.55,3.91,9.4,8.78c-0.88,11.83-17,7.7-25.27,8.36
		C50.11,273.61,50.11,273.64,50.11,273.66z"/>
	<path class="st0" d="M134.22,125.76c-2.79,5.34-8.5,9.37-13.79,5.93c-8.94-8.13-17.53-16.69-25.83-25.49
		c-6.41-7.75,6.51-18.19,13.29-10.18C116.84,106.08,128.62,113.12,134.22,125.76z"/>
	<path class="st0" d="M437.89,100.96c-6.17,12.24-17.26,19.41-26.26,29.3c-4.04,3.94-9.36,3.99-12.85,0.44
		c-9.42-11.01,17.43-26.18,23.5-34.85C428.13,89.4,434.14,95.4,437.89,100.96z"/>
	<path class="st0" d="M100.88,437.73c-5.63-2.97-9.75-8.86-5.74-14.48c7.82-8.56,16.16-16.67,24.6-24.63
		c7.31-6.86,18.52,4.71,11.49,11.89C121.01,419.69,113.62,431.81,100.88,437.73z"/>
	<path class="st0" d="M437.59,429.06c-10.17,21.1-29.56-11.78-39.43-19.15c-6.33-6.95,5.21-18.03,11.79-11.51
		C419.24,408.64,431.78,416.27,437.59,429.06z"/>
	<path class="st0" d="M273.6,50.41c-0.55,8.24,3.29,24.67-8.72,24.95c-4.87-0.09-8.48-4.06-8.52-9.69
		c-0.08-10.12-0.07-20.24,0-30.36c0.04-5.55,3.71-9.73,8.44-9.9C276.73,25.73,273.13,42.16,273.6,50.41z"/>
	<path class="st0" d="M479.34,273.67c-8.27-0.59-24.54,3.39-24.81-8.76c0.05-4.99,3.81-8.51,9.58-8.56
		c10.27-0.08,20.53-0.06,30.8,0.09c5.63,0.08,9.74,3.92,9.67,8.64c-0.73,11.74-16.97,7.95-25.23,8.51
		C479.34,273.61,479.34,273.64,479.34,273.67z"/>
</g>
</svg>
