<?xml version="1.0" encoding="utf-8"?>
<!-- Generator: Adobe Illustrator 24.1.1, SVG Export Plug-In . SVG Version: 6.00 Build 0)  -->
<svg version="1.1" id="Capa_1" xmlns="http://www.w3.org/2000/svg" xmlns:xlink="http://www.w3.org/1999/xlink" x="0px" y="0px"
	 viewBox="0 0 1022 964" style="enable-background:new 0 0 1022 964;" xml:space="preserve">
<style type="text/css">
	.st0{display:none;}
	.st1{display:inline;fill:#22B573;}
	.st2{display:inline;fill:#FFFFFF;stroke:#000000;stroke-miterlimit:10;}
	.st3{display:inline;}
	.st4{fill:#808080;}
	.st5{fill:#FFFF00;}
	.st6{display:inline;fill:#FFFFFF;}
	.st7{display:inline;fill:#FBB03B;}
	.st8{display:inline;fill:#FCC112;}
	.st9{fill:#666666;}
	.st10{fill:#4D4D4D;}
	.st11{fill:#A67C52;}
	.st12{fill:#F7931E;}
	.st13{fill:#883500;}
	.st14{display:none;fill:#333333;}
	.st15{display:none;fill:#E06110;}
	.st16{display:inline;fill:#F15A24;}
</style>
<g class="st0">
	<path class="st1" d="M3432.29,545.21c3.09-20.2,4.78-40.86,4.98-61.88l-50.05-18.55c-0.64-17.37-2.43-34.44-5.29-51.15l45.46-27.23
		c-4.51-20.72-10.5-40.89-17.85-60.39l-53.42,0.78c-6.64-15.36-14.25-30.2-22.76-44.44l32.56-41.83
		c-11.75-17.82-24.79-34.73-38.97-50.59l-49.5,20.01c-11.35-11.56-23.43-22.41-36.16-32.46l15.28-50.86
		c-17.4-12.52-35.77-23.79-54.97-33.67l-38.89,36.51c-14.44-6.59-29.35-12.32-44.69-17.1l-4.13-53.01
		c-20.68-5.43-41.96-9.37-63.73-11.71l-23.05,48.04c-7.85-0.48-15.77-0.73-23.74-0.73c-7.97,0-15.89,0.25-23.74,0.73l-23.05-48.04
		c-21.76,2.33-43.05,6.28-63.73,11.71l-4.13,53.01c-15.33,4.79-30.25,10.51-44.69,17.1l-38.89-36.51
		c-19.2,9.88-37.57,21.15-54.97,33.67l15.28,50.86c-12.73,10.06-24.81,20.9-36.16,32.46l-49.5-20.01
		c-14.18,15.86-27.21,32.76-38.97,50.59l32.56,41.83c-8.51,14.24-16.12,29.08-22.76,44.44l-53.42-0.78
		c-7.35,19.5-13.34,39.67-17.85,60.39l45.46,27.23c-2.87,16.71-4.66,33.78-5.29,51.15l-50.05,18.55c0.2,21.02,1.89,41.68,4.98,61.88
		l52.16,8.96c3.47,17.53,8.14,34.63,13.91,51.21l-39.95,35.36c7.64,19.03,16.59,37.39,26.74,54.97l51.9-10.49
		c9.78,15.35,20.63,29.96,32.43,43.72l-24.44,47.33c13.81,14.68,28.62,28.41,44.34,41.05l44.61-28.53
		c14.89,10.94,30.6,20.84,47.01,29.57l-5.68,52.9c17.94,8.52,36.55,15.84,55.73,21.86l31.34-42.79
		c17.91,4.75,36.33,8.25,55.17,10.38l13.77,51.25c9.87,0.67,19.83,1.02,29.87,1.02c10.04,0,20-0.35,29.87-1.02l13.77-51.25
		c18.84-2.13,37.26-5.63,55.17-10.38l31.34,42.79c19.19-6.03,37.8-13.35,55.73-21.86l-5.68-52.9c16.42-8.74,32.12-18.63,47.01-29.57
		l44.61,28.53c15.72-12.65,30.53-26.37,44.34-41.05l-24.44-47.33c11.8-13.76,22.65-28.37,32.43-43.72l51.9,10.49
		c10.15-17.58,19.1-35.95,26.74-54.97l-39.95-35.36c5.77-16.58,10.44-33.68,13.91-51.21L3432.29,545.21z"/>
	<circle class="st2" cx="3003.37" cy="480.32" r="192.6"/>
</g>
<g class="st0">
	<path class="st3" d="M1467,712"/>
	<g class="st3">
		<path class="st4" d="M1190.03,697h-14.06c-7.72,0-13.97-6.25-13.97-13.97v-3.06c0-7.72,6.25-13.97,13.97-13.97h14.06
			c7.72,0,13.97,6.25,13.97,13.97v3.06C1204,690.75,1197.75,697,1190.03,697z"/>
		<path class="st5" d="M1264.54,563.17c28.19-25.02,49.66-88.43,29.34-144c-16.85-46.07-59.26-79.9-108.02-81.17
			c-50.73-1.32-96.05,32.94-113.7,81c-20.49,55.79,1.31,119.12,29.34,144c2.12,1.88,21.1,17.35,26.09,26.39
			c0.1,0.19,0.2,0.37,0.3,0.55c17.12,5.15,35.5,7.96,54.63,7.96c19.62,0,38.45-2.95,55.94-8.36
			C1243.47,580.5,1262.42,565.05,1264.54,563.17z"/>
		<path class="st4" d="M1124.72,586.38c6.68,12.13,6.53,12.93,6.1,31.09c-0.25,10.61,3.96,47.11,10.79,54.56
			c25.5,27.81,58.85,24.6,84.17,0.18c7.23-6.98,11.03-43.95,10.79-54.56c-0.43-18.44-0.59-18.97,6.42-31.68
			c0-0.01,0.01-0.01,0.01-0.02c-18.72,5.78-38.86,8.94-59.84,8.94C1162.69,594.89,1143.03,591.88,1124.72,586.38z"/>
	</g>
	<circle class="st3" cx="1042.5" cy="766.5" r="21.5"/>
	<circle class="st3" cx="1087.5" cy="709.5" r="35.5"/>
	<path class="st6" d="M1244,617c-18.59,1.8-38,7.97-60,8c-22.77,0.04-45-6-64-8c0-1.67,0-3.33,0-5c19,4,41.23,8.04,64,8
		c22-0.03,41.41-6.2,60-8C1244,613.67,1244,615.33,1244,617z"/>
	<path class="st6" d="M1246,655.34c-18.59,1.8-38,7.97-60,8c-22.77,0.04-45-6-64-8c0-1.67,0-3.33,0-5c19,4,41.23,8.04,64,8
		c22-0.03,41.41-6.2,60-8C1246,652.01,1246,653.68,1246,655.34z"/>
	<path class="st6" d="M1240,637.28c-18.59,1.8-38,7.97-60,8c-22.77,0.04-45-6-64-8c0-1.67,0-3.33,0-5c19,4,41.23,8.04,64,8
		c22-0.03,41.41-6.2,60-8C1240,633.95,1240,635.62,1240,637.28z"/>
	<path class="st6" d="M1175,347c-1.18-2.82-33.92,4.63-65.26,29.36c-32.57,25.7-33.39,70.21-33.35,79.04
		c0.1,22.76,10.02,61.66,13.61,61.6c5.99-0.1-15.91-84.22,18.84-124.28C1137.14,360.11,1176.28,350.05,1175,347z"/>
	<path class="st6" d="M1236,584c0.93,0.31,2.99-8.87,11-19c6.82-8.64,14.01-12.96,17-15c24.65-16.84,32.56-62.38,31-63
		c-1.36-0.54-6.13,34.38-33,54c-4.8,3.5-11.96,7.73-18,17C1236.07,570.17,1234.9,583.63,1236,584z"/>
	<path class="st7" d="M1177.54,318h-4.08c-5.22,0-9.46-4.24-9.46-9.46v-38.08c0-5.22,4.24-9.46,9.46-9.46h4.08
		c5.22,0,9.46,4.24,9.46,9.46v38.08C1187,313.76,1182.76,318,1177.54,318z"/>
	<path class="st7" d="M1037,465.46v4.08c0,5.22-4.24,9.46-9.46,9.46h-38.08c-5.22,0-9.46-4.24-9.46-9.46v-4.08
		c0-5.22,4.24-9.46,9.46-9.46h38.08C1032.76,456,1037,460.24,1037,465.46z"/>
	<path class="st7" d="M1382,465.46v4.08c0,5.22-4.24,9.46-9.46,9.46h-38.08c-5.22,0-9.46-4.24-9.46-9.46v-4.08
		c0-5.22,4.24-9.46,9.46-9.46h38.08C1377.76,456,1382,460.24,1382,465.46z"/>
	<path class="st7" d="M1054.98,359.33l-1.4,3.83c-1.79,4.91-7.22,7.44-12.13,5.65l-35.78-13.02c-4.91-1.79-7.44-7.22-5.65-12.13
		l1.4-3.83c1.79-4.91,7.22-7.44,12.13-5.65l35.78,13.02C1054.23,348.99,1056.77,354.42,1054.98,359.33z"/>
	<path class="st7" d="M1311.5,368.85l-1.06-3.94c-1.35-5.05,1.64-10.23,6.69-11.59l36.78-9.86c5.05-1.35,10.23,1.64,11.59,6.69
		l1.06,3.94c1.35,5.05-1.64,10.23-6.69,11.59l-36.78,9.86C1318.04,376.89,1312.85,373.89,1311.5,368.85z"/>
	<path class="st7" d="M1053.71,570.42l-1.4-3.83c-1.79-4.91-7.22-7.44-12.13-5.65l-35.78,13.02c-4.91,1.79-7.44,7.22-5.65,12.13
		l1.4,3.83c1.79,4.91,7.22,7.44,12.13,5.65l35.78-13.02C1052.96,580.76,1055.49,575.33,1053.71,570.42z"/>
	<path class="st7" d="M1310.23,560.9l-1.06,3.94c-1.35,5.05,1.64,10.23,6.69,11.59l36.78,9.86c5.05,1.35,10.23-1.64,11.59-6.69
		l1.06-3.94c1.35-5.05-1.64-10.23-6.69-11.59l-36.78-9.86C1316.77,552.86,1311.58,555.85,1310.23,560.9z"/>
</g>
<g class="st0">
	<path class="st8" d="M673.01,674.36c2.1-13.75,3.25-27.81,3.39-42.12l-34.07-12.63c-0.43-11.82-1.65-23.44-3.6-34.82l30.94-18.54
		c-3.07-14.1-7.15-27.83-12.15-41.11l-36.36,0.53c-4.52-10.45-9.7-20.56-15.49-30.25l22.16-28.47c-8-12.13-16.87-23.64-26.52-34.43
		l-33.69,13.62c-7.73-7.87-15.95-15.25-24.62-22.1l10.4-34.62c-11.85-8.53-24.35-16.2-37.42-22.92l-26.47,24.85
		c-9.83-4.49-19.98-8.38-30.42-11.64l-2.81-36.09c-14.08-3.7-28.56-6.38-43.38-7.97l-15.69,32.7c-5.34-0.33-10.73-0.49-16.16-0.49
		s-10.81,0.17-16.16,0.49l-15.69-32.7c-14.82,1.59-29.3,4.27-43.38,7.97l-2.81,36.09c-10.44,3.26-20.59,7.16-30.42,11.64
		l-26.47-24.85c-13.07,6.72-25.57,14.39-37.42,22.92l10.4,34.62c-8.67,6.85-16.89,14.23-24.62,22.1l-33.69-13.62
		c-9.65,10.79-18.52,22.3-26.52,34.43l22.16,28.47c-5.79,9.69-10.97,19.8-15.49,30.25l-36.36-0.53c-5,13.27-9.08,27-12.15,41.11
		l30.94,18.54c-1.95,11.37-3.17,22.99-3.6,34.82L85.7,632.24c0.14,14.31,1.29,28.37,3.39,42.12l35.5,6.1
		c2.36,11.93,5.54,23.57,9.47,34.86l-27.19,24.07c5.2,12.95,11.3,25.45,18.21,37.42l35.33-7.14c6.66,10.45,14.04,20.39,22.07,29.76
		l-16.63,32.22c9.4,9.99,19.48,19.34,30.18,27.94l30.36-19.42c10.14,7.45,20.83,14.18,32,20.13l-3.87,36.01
		c12.21,5.8,24.88,10.78,37.94,14.88l21.33-29.13c12.19,3.24,24.73,5.62,37.55,7.07l9.38,34.89c6.72,0.46,13.5,0.69,20.33,0.69
		s13.61-0.24,20.33-0.69l9.38-34.89c12.82-1.45,25.36-3.83,37.55-7.07l21.33,29.13c13.06-4.1,25.73-9.09,37.94-14.88l-3.87-36.01
		c11.17-5.95,21.87-12.68,32-20.13l30.36,19.42c10.7-8.61,20.78-17.95,30.18-27.94l-16.63-32.22c8.03-9.37,15.41-19.31,22.07-29.76
		l35.33,7.14c6.91-11.97,13-24.47,18.2-37.42l-27.19-24.07c3.93-11.29,7.1-22.92,9.47-34.86L673.01,674.36z"/>
	<circle class="st2" cx="381.05" cy="630.18" r="131.1"/>
</g>
<g>
	<g>
		<polygon class="st9" points="429.91,497.04 522.02,524.06 378.55,856.98 355.02,856.67 		"/>
	</g>
	<g>
		<path class="st4" d="M679.02,281.67c-24,8-49,8-73,15c-1.07,0.54-2.15,0.92-3.22,1.17l-89.31,223.21l91.92,36.78L715,283.91
			l-17.67-7.07C691.18,278.09,685.05,279.56,679.02,281.67z"/>
	</g>
	<g>
		<polygon class="st9" points="661.79,497.04 569.68,524.06 713.15,856.98 737.02,856.67 		"/>
	</g>
	<path class="st10" d="M485.66,543.22c-1.64,13.45-50.99,68.89-74.64,165.45c-13.72,56.02-32.07,105.97-29.43,140.53l120.3-279.16
		C498.87,554.74,486.64,535.25,485.66,543.22z"/>
	<path class="st10" d="M608.96,551.26c1.64,13.45,50.99,68.89,74.64,165.45c13.72,56.02,32.07,105.97,29.43,140.53l-120.3-279.16
		C595.75,562.79,607.99,543.29,608.96,551.26z"/>
	<g>
		<path class="st9" d="M680.68,289.95l-89.31,223.21l26.53,12.82l99.6-248.94C701.92,279.7,681.76,289.7,680.68,289.95z"/>
	</g>
	<g>
		<polygon class="st10" points="840.06,279.01 840.97,287.06 596.02,314.67 600.02,304.67 		"/>
	</g>
	<g>
		<path class="st11" d="M910.96,247.16l2.27,20.08c0.37,3.25-1.97,6.18-5.22,6.55l-393.12,44.37c-3.25,0.37-6.18-1.97-6.55-5.22
			l-2.27-20.08c-0.37-3.25,1.97-6.18,5.22-6.55l393.12-44.37C907.66,241.57,910.59,243.91,910.96,247.16z"/>
	</g>
	<g>
		<path class="st12" d="M746.02,556.96v17.77c-199.27,1.73-344.57,1.25-370.02,0c-7.16-0.35-21.4-1.58-33.98-11.06
			c0,0-9.33-7.02-15.53-18.86c-11.1-21.18-84.42-204.67-182.07-455.04c0.31-0.12,0.61-0.25,0.92-0.37
			c50.25-20.11,107.29,4.33,127.4,54.58l132.74,331.75h259.31C709.66,475.73,746.02,512.09,746.02,556.96z"/>
	</g>
	<path class="st13" d="M373.24,574.96c26.75,1.15,157.02,1.61,337.33,0.21c-26.54-11.31-92.16-19.32-168.92-19.32
		C465.37,555.85,400.09,563.76,373.24,574.96z"/>
</g>
<path class="st14" d="M931.32,536.87c3.09-20.2,4.78-40.86,4.98-61.88l-50.05-18.55c-0.64-17.37-2.43-34.44-5.29-51.15l45.46-27.23
	c-4.51-20.72-10.5-40.89-17.85-60.39l-53.42,0.78c-4.6-10.65-9.69-21.05-15.2-31.17l-131.2,14.79l-33.75,84.35
	c12.8,25.78,20.02,54.83,20.02,85.56c0,3.05-0.08,6.07-0.22,9.08c30.54,11.68,52.24,41.24,52.24,75.88v17.77
	c-12.14,0.11-24.09,0.2-35.81,0.29c0.12,0.05,0.24,0.1,0.36,0.15c-10.99,0.09-21.78,0.16-32.38,0.24l43.88,209.76
	c2.2-1.55,4.38-3.11,6.55-4.7l44.61,28.53c15.72-12.65,30.53-26.37,44.34-41.05l-24.44-47.33c11.8-13.76,22.65-28.37,32.43-43.72
	l51.9,10.49c10.15-17.58,19.1-35.95,26.74-54.97l-39.95-35.36c5.77-16.58,10.44-33.68,13.91-51.21L931.32,536.87z"/>
<path class="st14" d="M355.26,347.7c35.33-41.79,88.13-68.33,147.13-68.33c13,0,25.7,1.3,37.98,3.75l312.34-35.25l12.21-15.69
	c-11.75-17.82-24.79-34.73-38.97-50.59l-49.5,20.01c-11.35-11.56-23.43-22.41-36.16-32.46l15.28-50.86
	c-17.4-12.52-35.77-23.79-54.97-33.67l-38.89,36.51c-14.44-6.59-29.35-12.32-44.69-17.1L612.91,51
	c-20.68-5.43-41.96-9.37-63.73-11.71l-23.05,48.04c-7.85-0.48-15.77-0.73-23.74-0.73c-7.97,0-15.89,0.25-23.74,0.73L455.61,39.3
	c-21.76,2.33-43.05,6.28-63.73,11.71l-4.13,53.01c-15.33,4.79-30.25,10.51-44.69,17.1l-38.89-36.51
	c-17.07,8.78-33.48,18.67-49.14,29.56c7.77,8.48,14.17,18.48,18.7,29.79L355.26,347.7z"/>
<path class="st15" d="M239.09,531.66l-3.11,1.46c-17.92,8.38-39.09-1.08-44.81-20.02l-76.61-253.83
	c-7.31-27.52,5.74-56.38,31.23-69.07l30.17-15.02l77.82,326.04C256.72,513.57,250.58,526.28,239.09,531.66z"/>
<path class="st15" d="M175,186c-6.83,1.04-21-38.12-21-38.13c-7.75-18.63-15-40.38-18-56.88c22-37,86.97-4.76,123,10
	c68.12,27.92,75.53,175.01,81,207c24.42,142.8-80,189-88,204c-7,1-29.58-9.6-23-22c26-49,115-20,78-233
	c-7.24-41.68-39.4-146.29-87-165c-32.16-12.64-62-15-75-3c17.77,50.37,30.64,87.07,32,91c0.36,1.05,1.19,3.56,0,5
	C177,185,176.34,185.8,175,186z"/>
<path class="st15" d="M135,134"/>
<path class="st15" d="M191.13,523L191.13,523c-18.49,5.64-38.05-4.78-43.69-23.27l-19.84-65.04c-5.64-18.49,4.78-38.05,23.27-43.69
	l0,0c18.49-5.64,38.05,4.78,43.69,23.27l19.84,65.04C220.04,497.8,209.62,517.36,191.13,523z"/>
<path class="st15" d="M155.85,362.58L155.85,362.58c-18.49,5.64-38.05-4.78-43.69-23.27l-19.84-65.04
	c-5.64-18.49,4.78-38.05,23.27-43.69l0,0c18.49-5.64,38.05,4.78,43.69,23.27l19.84,65.04C184.76,337.38,174.34,356.94,155.85,362.58
	z"/>
<g class="st0">
	<path class="st8" d="M848.06,221.78l0.35,3.09c1.44,12.75-7.73,24.25-20.48,25.69L596.6,276.67c-12.75,1.44-24.25-7.73-25.69-20.48
		l-0.35-3.09c-1.44-12.75,7.73-24.25,20.48-25.69l231.32-26.11C835.12,199.86,846.62,209.03,848.06,221.78z"/>
</g>
<g class="st0">
	<path class="st16" d="M869.41,169.88l0.35,3.09c1.44,12.75-7.73,24.25-20.48,25.69l-231.32,26.11
		c-12.75,1.44-24.25-7.73-25.69-20.48l-0.35-3.09c-1.44-12.75,7.73-24.25,20.48-25.69l231.32-26.11
		C856.47,147.96,867.97,157.13,869.41,169.88z"/>
</g>
</svg>
